<?xml version="1.0" encoding="UTF-8"?>
<svg id="Layer_2" data-name="Layer 2" xmlns="http://www.w3.org/2000/svg" viewBox="0 0 882.35 181.21">
  <defs>
    <style>
      .cls-1 {
        fill: #faf1e5;
      }
    </style>
  </defs>
  <g id="Layer_1-2" data-name="Layer 1">
    <g>
      <path class="cls-1" d="M20.91,86.8c-.88,0-1.5-.85-1.84-2.55-.34-1.7-.61-5.17-.82-10.4-.2-5.24-.44-14.62-.71-28.15,0-.61-.04-2.28-.1-5-.07-2.72-.27-5.3-.61-7.75-.41-1.9-.68-4.15-.82-6.73-.14-2.18-.31-3.77-.51-4.79-.2-.2-.92-.31-2.14-.31-.48,0-2.35.1-5.61.31-2.04.41-3.6.61-4.69.61-1.16,0-1.96-.32-2.4-.97-.44-.65-.66-1.85-.66-3.62,0-.68.07-2.24.2-4.69.14-1.36.27-3.5.41-6.43.07-.27.1-.7.1-1.27s.05-1.05.15-1.43c.1-.37.32-.7.66-.97,6.73-.88,16.28-1.53,28.66-1.94.34.07,1.56,0,3.67-.2,3.26-.34,5.37-.51,6.32-.51,2.58,0,3.98.44,4.18,1.33,0,.95.2,2.65.61,5.1.14.61.27,1.46.41,2.55.14,2.11.27,3.64.41,4.59.14,1.36.2,2.18.2,2.45,0,.95-.29,1.63-.87,2.04-.58.41-1.6.73-3.06.97-1.46.24-4.06.53-7.8.87-4.76.41-7.79.68-9.08.82,2.11,20.6,3.71,42.33,4.79,65.18-.34.75-1.39,1.12-3.16,1.12-.61,0-1.39-.05-2.35-.15-.95-.1-1.67-.19-2.14-.25-.82.14-1.29.2-1.43.2ZM3.26,5l.1-.1.41-.2-.61-.2c0,.27.03.44.1.51ZM6.83,17.85l-.1-.1c-.48-.14-.87-.36-1.17-.66-.31-.31-.53-.49-.66-.56,0,.27.02.58.05.92.03.34.02.58-.05.71l1.94-.31ZM8.98,15.3c-.14-.14-.2-.24-.2-.31-.07.14-.2.29-.41.46-.2.17-.27.32-.2.46l.82-.61ZM11.12,7.55c.07-.07.1-.15.1-.26s.03-.19.1-.25c-.27-.14-.44-.2-.51-.2,0,.07-.07.17-.2.31l.51.41ZM16.42,8.98l.41-.31-.61-.51c0,.14.07.41.2.82ZM16.83,10.1l.82-.82c-.07-.07-.17-.1-.31-.1s-.37.17-.71.51l.2.41ZM19.48,7.24l.31-.31h-.71l.41.31ZM20.6,42.53c0,.48.03.82.1,1.02.14-.14.2-.37.2-.71,0-.48-.07-.92-.2-1.33h-.2c.07.2.1.54.1,1.02ZM20.91,27.74l-.1,1.12c0,.14.07.41.2.82.14-.34.22-.82.25-1.43.03-.61.15-1.05.36-1.33-.41.14-.68.2-.82.2l.1.61ZM21.93,64.46c0-.14-.04-.26-.1-.36-.07-.1-.07-.19,0-.26-.07.2-.2.34-.41.41l.51.2ZM21.57,66.2c.03.14.08.24.15.31,0-.34-.07-.58-.2-.71,0,.14.02.27.05.41ZM22.03,55.64c.14-.37.24-.66.31-.87-.34.07-.53.22-.56.46-.04.24-.04.49,0,.76.03.27.05.48.05.61,0-.27.07-.59.2-.97ZM22.54,77.52c0-.47.03-.85.1-1.12h-.1l-.2-.2c-.07.34-.1.82-.1,1.43.07-.07.17-.1.31-.1ZM23.97,43.66c0-1.02-.04-1.7-.1-2.04-.41,1.09-.65,1.73-.71,1.94.41,0,.68.04.82.1ZM25.6,70.38c0-.27-.04-.61-.1-1.02-.07-.41-.07-.68,0-.82-.07.2-.1.44-.1.71v.36c0,.17-.07.32-.2.46l.41.31ZM26.52,83.54l-.2-2.35-.41.2c.27.27.41.54.41.82,0,.54-.24.98-.71,1.33h.92ZM26.11,77.62c-.07-.41-.1-.98-.1-1.73l-.31,1.73h.41ZM29.07,11.42c-.07-.07-.1-.15-.1-.25s-.04-.19-.1-.26c-.27.27-.44.48-.51.61.27,0,.51-.03.71-.1ZM35.09,5.81c-.07-.2-.24-.31-.51-.31-.2,0-.37.04-.51.1-.14.07-.24.1-.31.1.61,0,1.05.03,1.33.1ZM37.33,13.46l-.51-.31-.41.61c.48,0,.78-.1.92-.31ZM37.43,5.1v-.1l.82-.61-1.02.1c.14.27.2.48.2.61ZM40.39,5.3l-.1-.51c0-.27.03-.44.1-.51-.41,0-.75.04-1.02.1.34.14.68.44,1.02.92ZM41.41,4.49l.61,2.24-.1-2.55c-.27,0-.48.04-.61.1.07,0,.1.07.1.2Z"/>
      <path class="cls-1" d="M85.22,79.31c-1.33.37-2.13.56-2.4.56-.61,0-1.02-.48-1.22-1.43-.2-.95-.37-3.2-.51-6.73-.14-4.69-.41-9.72-.82-15.1-4.15.48-7.92.71-11.32.71-1.02,0-2.48-.07-4.39-.2.07,2.38.15,5.42.25,9.13.1,3.71.15,6.82.15,9.33,0,.82-.22,1.43-.66,1.84-.44.41-1.38.55-2.8.41-1.09.07-2.04.09-2.86.05-.82-.03-1.46-.05-1.94-.05-.82-.07-2.01-.1-3.57-.1-.54-.27-.82-.59-.82-.97s-.07-5.92-.2-16.63c-.14-10.71-.48-24.16-1.02-40.34v-3.98c0-1.22.14-1.94.41-2.14.27-.2,1.12-.37,2.55-.51,2.18-.2,3.88-.41,5.1-.61.41-.07.7.12.87.56.17.44.34,1.51.51,3.21.17,1.7.36,3.88.56,6.53l.71,10.1,5.2-.71c4.42-.68,8.47-1.16,12.14-1.43-.14-2.24-.2-5.85-.2-10.81s-.1-8.5-.31-10.61c-.07-.34.51-.63,1.73-.87,1.22-.24,2.53-.41,3.93-.51,1.39-.1,2.36-.19,2.91-.25.82-.14,1.22.95,1.22,3.26,0,1.29-.03,2.24-.1,2.86-.14,1.7-.14,3.03,0,3.98.95,14.55,1.43,30.19,1.43,46.92l-.1,10.81c.2,1.22.31,1.87.31,1.94,0,.41-.2.78-.61,1.12-1.43.07-2.8.29-4.13.66ZM53.55,15.3h-.41v.31l.41-.31ZM53.96,22.44h-.2v.41l.2-.41ZM54.16,31.72c.07-.2.17-.44.31-.71.14-.27.19-.49.15-.66-.03-.17-.22-.25-.56-.25.07.34.1.88.1,1.63ZM54.88,40.29c-.07,0-.14.02-.2.05-.07.04-.14.02-.2-.05v.82c.14-.41.27-.68.41-.82ZM55.69,46.82l-.31.1v.71l.31-.82ZM55.49,52.43l.2.1.1-.41c0-.27-.1-.61-.31-1.02,0,.07-.04.14-.1.2l.1,1.12ZM55.9,16.12c.2-.2.36-.41.46-.61.1-.2.22-.37.36-.51l-.92.1c0,.48.03.82.1,1.02ZM56.51,43.04l.2-.71c-.14.07-.24.09-.31.05-.07-.03-.14-.05-.2-.05l.31.71ZM58.34,62.93c.14-.2.2-.44.2-.71v-.61c-.2.27-.31.51-.31.71l.1.61ZM59.06,29.27l.1-.1c0-.75-.07-1.87-.2-3.37l.1,3.47ZM59.47,52.63l-.1-1.22c0,.07-.04.1-.1.1l-.1.1-.1.92c.07.07.2.1.41.1ZM61,58.45l-.1-1.33h-.31v.71c.14.27.27.48.41.61ZM61.2,63.34c.07-.2.07-.39,0-.56-.07-.17-.14-.29-.2-.36l.2.92ZM65.43,48.55c.1-.14.12-.24.05-.31l-.31.31c.07.14.15.14.25,0ZM65.38,44.68l.41-.92c-.14.14-.24.27-.31.41-.07.14-.14.27-.2.41l.1.1ZM68.14,36.11c-.2-.2-.34-.27-.41-.2l.41.2ZM70.28,34.78c-.2.07-.2.1,0,.1v-.1ZM71.09,51.26c.48-.03.71-.22.71-.56-.27.14-.58.24-.92.31-.34.07-.58.17-.71.31.14,0,.44-.02.92-.05ZM77.72,52.02c-.07-.14-.24-.2-.51-.2s-.53.05-.77.15c-.24.1-.46.15-.66.15,1.02,0,1.67-.03,1.94-.1ZM79.3,35.45c.03.24.05.39.05.46l-.1-1.12h-.41l-.1.1c.34.14.53.32.56.56ZM79.05,47.94c.14-.14.34-.2.61-.2v-.41l-.2-.1c-.14.2-.31.37-.51.51l.1.2ZM80.07,51.82v-.31l-.2.1.2.2ZM80.27,11.32h.2c.2-.14.26-.37.15-.71-.1-.34-.25-.44-.46-.31.07.2.1.54.1,1.02ZM82.42,22.44c.14-.14.2-.31.2-.51,0-.27-.1-.61-.31-1.02l-.1.1c0,.27.07.75.2,1.43ZM83.33,60.69c.14-.54.2-.88.2-1.02,0-.27-.14-.75-.41-1.43l.2,2.45ZM84.15,38.56c.2-.34.31-.58.31-.71,0-.27-.24-.65-.71-1.12.14.41.27,1.02.41,1.84ZM85.27,74.77c0-.14-.12-.17-.36-.1-.24.07-.32.17-.25.31.27-.14.48-.2.61-.2ZM85.93,61.46c.24.51.39.9.46,1.17l-.71-2.86c0,.07-.07.17-.2.31.07.41.22.87.46,1.38ZM86.9,43.55l-.1-2.86h-.1l-.1,2.14c.2.27.31.51.31.71ZM87.31,56.87c0,.1.03.19.1.25,0-.54-.03-.95-.1-1.22,0,.34-.03.58-.1.71.07.07.1.15.1.25Z"/>
      <path class="cls-1" d="M95.06,72.22c0-.34.07-.65.2-.92.61-.68.98-1.56,1.12-2.65.14-1.09.2-3.37.2-6.83v-12.95l.1-3.67c.07-.82.1-2,.1-3.57,0-2.04-.17-3.74-.51-5.1v-.41c0-.34.12-.75.36-1.22.24-.48.32-.92.26-1.33.07-.75.1-1.7.1-2.86s2.77-1.94,8.31-2.35c5.54-.41,8.86-.68,9.95-.82,1.22-.14,2.07-.2,2.55-.2,1.02,0,1.84.17,2.45.51,1.22-.2,1.9-.31,2.04-.31.54,0,.92.1,1.12.31.75.82,1.12,5.41,1.12,13.77,0,2.72-.07,6.8-.2,12.24l-.1,5.1c.14,5.03.2,9.79.2,14.28v3.26c-.07.41-.03.88.1,1.43.14.54.2.99.2,1.33,0,.54-.24,1.02-.71,1.43-.61.34-2.5.61-5.66.82-3.16.2-6.99.31-11.48.31-3.2,0-5.65-.04-7.34-.1-.68.14-1.16.2-1.43.2-1.36,0-2.04-.75-2.04-2.24,0-.54.03-1.09.1-1.63.07-.54.1-1.12.1-1.73,0-1.36-.34-2.35-1.02-2.96-.14-.54-.2-.92-.2-1.12ZM100.57,78.64c-.41-.27-.65-.54-.71-.82v.82h.71ZM100.27,16.01c0-1.97.88-3.69,2.65-5.15,1.77-1.46,3.74-2.19,5.92-2.19,1.56,0,2.96.46,4.18,1.38s2.07,2.33,2.55,4.23c.2.82.31,1.6.31,2.35,0,2.38-.8,4.34-2.4,5.87-1.6,1.53-3.45,2.29-5.56,2.29-1.84,0-3.45-.63-4.84-1.89-1.39-1.26-2.29-3.18-2.7-5.76-.07-.27-.1-.65-.1-1.12ZM100.98,32.18c.2-.03.31-.12.31-.25-.27.07-.48.1-.61.1s-.24.04-.31.1c.2.07.41.09.61.05ZM104.75,14.08l.71-1.53c-.82.48-1.29.99-1.43,1.53.27-.14.51-.14.71,0ZM104.24,45.08c.07-.34.1-.92.1-1.73h-.31c.14.68.2,1.26.2,1.73ZM106.18,18.87c-.07-.14-.15-.32-.25-.56-.1-.24-.19-.31-.25-.2-.07.1-.1.32-.1.66.27,0,.47.04.61.1ZM107.81,21.73c1.29,0,2.35-.47,3.16-1.43-.88.68-2.35,1.09-4.39,1.22.54.14.95.2,1.22.2ZM107.25,67.01c.1.2.26.31.46.31,0-.07.03-.1.1-.1,0-.14.07-.34.2-.61-.48,0-.85-.03-1.12-.1.14.14.26.31.36.51ZM108.32,18.05c.27.2.54.31.82.31.41,0,.61-.24.61-.71l-.2.1c-.14,0-.41-.1-.82-.31-.41-.2-.68-.24-.82-.1h-.2c.14.27.34.51.61.71ZM107.92,12.04c.07-.07.15-.12.26-.15.1-.03.19-.12.25-.25-.14.07-.34.1-.61.1l.1.31ZM109.24,12.75c.27,0,.68.07,1.22.2,0-.68-.17-1.02-.51-1.02-.2,0-.48.15-.82.46-.34.31-.58.49-.71.56.41-.14.68-.2.82-.2ZM115.06,77.72c-.14-.14-.31-.2-.51-.2s-.44.02-.71.05c-.27.04-.49.04-.66,0-.17-.03-.25-.19-.25-.46-.41.41-.75.68-1.02.82.61,0,1.67-.07,3.16-.2ZM116.48,30.85c.27-.1.37-.19.31-.25-.54-.14-.82.04-.82.51.07-.07.24-.15.51-.26ZM120.56,77.42c0-.34.03-.58.1-.71-.54.41-1.12.68-1.73.82.34-.07.88-.1,1.63-.1ZM120.36,33.97v-.41l-.31.41h.31Z"/>
      <path class="cls-1" d="M130.56,65.18c-.48-2.45-.71-5-.71-7.65,0-3.26.41-6.02,1.22-8.26s2.04-3.37,3.67-3.37c1.5,0,3.3,1.09,5.41,3.26.14.68.2,1.26.2,1.73,0,.54-.07,1.56-.2,3.06,0,.41-.05,1.09-.15,2.04-.1.95-.15,1.84-.15,2.65,0,3.94.92,7.38,2.75,10.3,1.36,1.09,2.89,1.63,4.59,1.63s3.4-.58,4.9-1.73c1.49-1.16,2.55-2.72,3.16-4.69.54-1.63.82-3.16.82-4.59,0-3.2-.94-6.44-2.81-9.74-1.87-3.3-4.71-7.4-8.52-12.29-3.4-4.49-6.04-8.21-7.9-11.17-1.87-2.96-3.04-5.97-3.52-9.03-.2-2.65.36-5.03,1.68-7.14,1.33-2.11,3.18-3.76,5.56-4.95,2.38-1.19,5-1.79,7.85-1.79,2.11,0,4.28.37,6.53,1.12,3.47.75,6.31,2.07,8.52,3.98,2.21,1.9,3.35,4.59,3.42,8.06,0,.2.03.46.1.77.07.31.1.7.1,1.17,0,2.65-2.69,4.08-8.06,4.28-.48-.2-.85-.63-1.12-1.27-.27-.65-.44-1.04-.51-1.17-.41-1.29-.88-2.31-1.43-3.06-2.11-1.84-4.01-2.75-5.71-2.75-1.16,0-2.04.43-2.65,1.27-.61.85-.92,1.96-.92,3.31,0,2.65.98,5.27,2.96,7.85.61,1.09,1.44,2.41,2.5,3.98,1.05,1.56,1.82,2.72,2.29,3.47,3.81,5.58,6.75,10.4,8.82,14.48,2.07,4.08,3.11,8.16,3.11,12.24,0,5.58-2.41,10.64-7.24,15.2-3.4,2.79-7.14,4.18-11.22,4.18-3.13,0-6.05-.87-8.77-2.6-2.72-1.73-4.93-4.23-6.63-7.5-.82-1.09-1.46-2.86-1.94-5.3ZM134.43,54.26c-.14,0-.2-.03-.2-.1,0,.14-.04.2-.1.2.14,0,.24-.03.31-.1ZM134.23,61.61c0-.14.03-.2.1-.2l-.1-.2v.41ZM134.84,52.63c.2.07.34.04.41-.1-.07-.07-.17-.1-.31-.1s-.24-.03-.31-.1v.1c-.07.07,0,.14.2.2ZM135.05,60.18c.27,0,.41.15.41.46s-.14.43-.41.36v.2c.14,0,.27.07.41.2,0-.14.03-.24.1-.31.07-.27.2-.46.41-.56s.44-.12.71-.05l-.1-.92c-.2.41-.51.61-.92.61-.2,0-.44-.14-.71-.41-.14.2-.2.38-.2.51.07-.07.17-.1.31-.1ZM135.76,67.22c.14-.14.2-.31.2-.51,0-.27-.14-.58-.41-.92-.27-.34-.48-.61-.61-.82l.82,2.24ZM137.39,65.48l-.1-.51c-.14.14-.14.31,0,.51h.1ZM137.9,67.93c0,.48.2.68.61.61l-.41-1.22c-.14.27-.2.48-.2.61ZM139.13,13.01c-.07-.17-.1-.29-.1-.36l-.41.82c.41-.14.58-.29.51-.46ZM140.15,22.44v-.41c-.14,0-.24-.03-.31-.1l.31.51ZM142.9,12.34c.14-.14.24-.31.31-.51-.14-.07-.34-.1-.61-.1-.34,0-.61.07-.82.2-.2.14-.31.27-.31.41,0,.34.37.51,1.12.51.07-.2.17-.37.31-.51ZM144.74,8.67c-.48.07-.92.24-1.33.51l-.31.1c.95,0,1.5-.2,1.63-.61ZM145.55,75.68c-.07-.2-.17-.32-.31-.36-.14-.03-.24-.05-.31-.05,0,.07-.07.17-.2.31l.82.1ZM154.02,9.28c0-.07.07-.17.2-.31-.14,0-.24-.03-.31-.1-.07-.07-.17-.1-.31-.1l.41.51ZM156.47,72.01l-.31-.31-.41.41c.14-.07.37-.1.71-.1ZM156.57,10.61l.1-.71-.2-.1c0,.34-.04.58-.1.71.14,0,.2.04.2.1ZM157.89,69.97c.14-.34.37-.65.71-.92.34-.27.58-.44.71-.51l-.41-.31c-.27.27-.51.56-.71.87-.2.31-.41.6-.61.87h.31ZM160.24,17.54l-.2.2c.14.61.2.55.2-.2ZM163.3,15.5v-.61l-.41.51.41.1ZM163.4,18.51c.07-.03.17-.05.31-.05l-.31-.41c0,.2-.07.37-.2.51.07,0,.14-.02.2-.05Z"/>
      <path class="cls-1" d="M202.77,46.21c0-6.8,1.84-13.06,5.51-18.77,3.67-5.71,8.45-10.23,14.33-13.57,5.88-3.33,11.98-5,18.31-5s11.81,1.68,17.08,5.05c5.27,3.37,9.6,8.48,13,15.35,2.18,4.35,3.26,8.94,3.26,13.77,0,5.58-1.39,11-4.18,16.27-2.79,5.27-6.58,9.71-11.37,13.31-4.79,3.61-10.05,5.88-15.76,6.83-2.18.34-4.22.51-6.12.51-6.8,0-13.11-1.73-18.92-5.2-5.81-3.47-9.98-8.43-12.49-14.89-1.77-4.49-2.65-9.04-2.65-13.67ZM211.85,50.9c0,.48.05.94.15,1.38.1.44.2.8.31,1.07.1.27.15.31.15.1l.1.61c0,.48.1.63.31.46.2-.17.39-.54.56-1.12.17-.58.25-1.14.25-1.68,0-1.16-.48-1.73-1.43-1.73-.27,0-.41.31-.41.92ZM215.52,61.91l.82,1.33c0-.14-.27-.61-.82-1.43-.54-.82-.85-1.29-.92-1.43l.92,1.53ZM220.37,27.8c.71-.85.93-1.28.66-1.28-.48,0-.9.37-1.27,1.12-.37.75-.63,1.22-.77,1.43-.07.14-.14.27-.2.41-.07.14-.17.27-.31.41.54-.54,1.17-1.24,1.89-2.09ZM222.36,51.82c.07-.14.08-.34.05-.61-.04-.27-.09-.37-.15-.31-.34.2-.48.34-.41.41l.51.51ZM223.48,54.16c0,.14.08.32.26.56.17.24.25.29.25.15,0-.07.02-.27.05-.61.03-.34-.05-.51-.25-.51v.15s-.04.05-.1.05l-.2.1v.1ZM226.23,71.5c.14.07.19-.03.15-.31-.04-.27-.02-.44.05-.51l.31-.31.1-.1c0-.14-.17-.2-.51-.2-.41,0-.78.09-1.12.25-.34.17-.34.36,0,.56l1.02.61ZM226.13,22.64c.14,0,.2-.03.2-.1-.07-.07-.25-.15-.56-.25-.31-.1-.46-.05-.46.15,0,.14.27.2.82.2ZM229.8,39.32c.54-.71,1.07-1.41,1.58-2.09.51-.68.56-.78.15-.31l-1.84,2.35-.31.51c-.27.41-.14.25.41-.46ZM230.26,50.54c.17-.17.25-.29.25-.36-.07.07-.17.1-.31.1s-.2.04-.2.1v.2c0,.14.08.12.25-.05ZM230.97,73.64c.51.2,1,.31,1.48.31s.65-.1.51-.31c-.14-.34-.44-.66-.92-.97-.48-.31-.88-.46-1.22-.46-.41,0-.61.24-.61.71,0,.27.26.51.77.71ZM232.2,44.73c.24.1.36.09.36-.05v-.31c0-.07-.1-.08-.31-.05-.2.04-.39.09-.56.15-.17.07-.19.1-.05.1s.32.05.56.15ZM234.49,63.14v-.31l-.2.31h.2ZM235.92,56.1l-.2-.71-.1.31.31.41ZM237.04,25.04c.34.24.68.36,1.02.36.54,0,.82-.24.82-.71,0-.2-.17-.39-.51-.56-.34-.17-.68-.25-1.02-.25-.54,0-.82.14-.82.41s.17.53.51.76ZM238.62,30.19c.24.34.39.41.46.2l.51-2.45c0-.07-.04-.02-.1.15-.07.17-.2.36-.41.56-.14.14-.39.34-.76.61-.37.27-.46.41-.26.41.14,0,.32.17.56.51ZM239.03,21.22c.51.07.73,0,.66-.2-.07-.34-.19-.61-.36-.82-.17-.2-.36-.31-.56-.31-.34,0-.51.27-.51.82,0,.27.25.44.77.51ZM239.7,53.24c.07.2.07-.05,0-.77-.07-.71-.19-1.41-.36-2.09-.17-.68-.32-.95-.46-.82-.07.07-.14.1-.2.1s-.1.04-.1.1l1.12,3.47ZM238.68,45.49c.07.2.14.31.2.31,0-.07.02-.19.05-.36.03-.17-.02-.26-.15-.26s-.17.1-.1.31ZM243.98,15.61l.51-.82c.07-.07.03-.1-.1-.1s-.29.04-.46.1c-.17.07-.29.14-.36.2l.41.61ZM246.53,61.71c.14-.34.24-.63.31-.87.07-.24.1-.42.1-.56l.1-.41c.07-.41-.05-.34-.36.2-.31.54-.58,1.12-.82,1.73-.24.61-.25.85-.05.71.34-.2.58-.48.71-.82ZM247.04,33.05c.07.95.17,1.39.31,1.33.2-.2.31-.47.31-.82s-.07-.75-.2-1.22c-.14-.47-.24-.82-.31-1.02-.07,0-.15.03-.25.1-.1.07-.25.14-.46.2.34,0,.54.48.61,1.43ZM249.59,22.85c.14,0,.17-.03.1-.1l-.2-.31.1.41ZM250.1,16.22c0,.2.29.44.87.71.58.27.87.24.87-.1,0-.14-.03-.2-.1-.2h-.31l-.82-.31c-.07-.07-.2-.1-.41-.1h-.1ZM250.51,28.66c.47,0,.71-.07.71-.2,0-.2-.09-.29-.25-.25-.17.04-.34.12-.51.25-.17.14-.19.2-.05.2h.1ZM251.73,63.95c.41-.68.61-1.26.61-1.73s-.14-.41-.41.2c-.27.61-.51,1.27-.71,1.99-.2.71-.24.94-.1.66l.61-1.12ZM253.01,56.76c.1.04.12.02.05-.05-.07-.07-.09-.17-.05-.31.03-.14.02-.17-.05-.1l-.1.31c0,.07.05.12.15.15ZM253.47,19.99c0,.14.29.31.87.51.58.2.87.2.87,0l.1-.31v-.2c0-.14-.1-.2-.31-.2s-.44.04-.71.1c-.27.07-.51.1-.71.1h-.1ZM257.14,43.6c.07.17.2.26.41.26s.41-.12.61-.36c.2-.24.34-.39.41-.46l.1-.2c0-.14-.15-.25-.46-.36-.31-.1-.56-.15-.76-.15l-.1.1c0,.07-.05.14-.15.2-.1.07-.15.14-.15.2,0,.34.03.6.1.76ZM260.81,24.28l.2-.1c-.07,0-.2-.1-.41-.31l.2.41ZM268.56,41c.2,0,.31-.2.31-.61,0-.34-.05-.65-.15-.92-.1-.27-.22-.41-.36-.41-.2,0-.38.2-.51.61-.14.41-.17.78-.1,1.12.07.34.17.44.31.31.07-.07.24-.1.51-.1Z"/>
      <path class="cls-1" d="M279.37,75.38c0-7.68.32-17.93.97-30.75.65-12.82,1.41-23.85,2.29-33.1.07-.34.15-1.16.25-2.45.1-1.29.32-2.35.66-3.16.34-.82.88-.98,1.63-.51.41-.68,1.07-.31,1.99,1.12.92,1.43,2.46,4.25,4.64,8.47,3.88,7.14,7.26,13.18,10.15,18.1,2.89,4.93,6.44,10.25,10.66,15.96.41-6.32.7-11.9.87-16.73.17-4.83.32-10.98.46-18.46l.2-9.18c.27-.54.53-.87.77-.97.24-.1.56-.17.97-.2.41-.03.71-.05.92-.05.75.07,1.7.1,2.86.1l4.08-.1c1.02,0,1.67.27,1.94.82.27.54.41,1.8.41,3.77v5.2c0,3.2.03,5.85.1,7.96.14,14.83.2,26.01.2,33.56,0,10.95-.07,19.14-.2,24.58-.07.07-.41.37-1.02.92-.61.54-1.22.58-1.84.1l-3.77-3.67c-2.72-2.58-4.95-4.88-6.68-6.88-1.73-2-3.25-4.23-4.54-6.68-3.2-4.42-6.39-8.06-9.59-10.91-.34-.07-.51-.25-.51-.56s-.04-.53-.1-.66l.31,24.89c-.07.2-.04,1.06.1,2.55.14,1.63.2,2.89.2,3.77,0,2.72-.61,3.88-1.84,3.47-.07-.07-1.09.03-3.06.31-3.94.61-7.04.92-9.28.92-3.67,0-5.2-.82-4.59-2.45-.41-.41-.61-3.43-.61-9.08ZM284.06,62.63l-.2-.71v1.02l.2-.31ZM284.06,56.81c.14-.61.14-1.05,0-1.33h-.1v1.33h.1ZM284.78,47.23c.07-.14.1-.34.1-.61s-.05-.53-.15-.77c-.1-.24-.25-.32-.46-.25v1.63h.51ZM284.68,45.08v-.71h-.31c-.14.27-.04.51.31.71ZM285.08,74.36c-.07-.07-.1-.17-.1-.31,0,.14-.04.24-.1.31h.2ZM286.31,82.01c.07-.07.2-.1.41-.1-.07-.14-.1-.41-.1-.82-.82.34-1.39.51-1.73.51.07.2.07.37,0,.51.34-.07.82-.1,1.43-.1ZM286.41,10.51c0-.2-.17-.75-.51-1.63v1.53l.51.1ZM288.35,72.52l.41-.82c0-.14-.09-.29-.25-.46-.17-.17-.36-.42-.56-.76.14.54.27,1.22.41,2.04ZM289.27,66.91l.1-.1c0-.2-.1-.42-.31-.66-.2-.24-.34-.39-.41-.46l.61,1.22ZM289.78,40.29c-.07-.34-.1-.92-.1-1.73h-.1l.2,1.73ZM289.78,67.12c-.07-.14-.1-.03-.1.31s.03.48.1.41v-.71ZM291.1,46.82l-.1-.41-.2.31.31.1ZM297.73,33.25c.14.14.24.24.31.31l-.41-.82c-.07.2-.04.37.1.51ZM297.73,38.45c0,.14.2.41.61.82,0-.14-.17-.51-.51-1.12l-.1.31ZM298.34,48.76l1.02.41c-.41-.54-.85-.85-1.33-.92,0,.34.1.51.31.51ZM299.26,45.75c-.07.1-.09.2-.05.31.03.1.15.19.36.25l.61.1c-.41-.61-.65-.95-.71-1.02-.07.14-.14.25-.2.36ZM301.61,49.88v-.1c0-.27-.14-.46-.41-.56-.27-.1-.44-.15-.51-.15.47.34.78.61.92.82ZM317.93,38.25h-.41l-.1,2.75.51-2.75ZM318.13,33.35c-.14-.54-.2-1.26-.2-2.14-.07.2-.1.54-.1,1.02,0,.34.03.61.1.82,0,.07.07.17.2.31ZM319.97,12.14l.1-.92c-.14,0-.24-.07-.31-.2,0,.34.07.71.2,1.12ZM321.8,66.81l.1-.61c0-.34-.04-.68-.1-1.02-.07-.34-.14-.54-.2-.61-.14,0-.2.82-.2,2.45.2-.2.34-.27.41-.2ZM323.03,62.73c-.07-.61-.07-.98,0-1.12l-.41.51.31.51c0,.07.03.1.1.1Z"/>
      <path class="cls-1" d="M362.14,81.7c-1.19-.07-2.19-.14-3.01-.2-3.81-.27-6.7-.41-8.67-.41-1.5,0-2.65.03-3.47.1l-3.77.31c-2.72.27-4.76.41-6.12.41s-2.72-.1-4.08-.31c-.48-.14-.8-.41-.97-.82-.17-.41-.27-.9-.31-1.48-.04-.58-.12-1.07-.26-1.48.2-1.22.31-3.23.31-6.02l-.1-13.26c0-9.38.27-20.98.82-34.78.2-1.97.31-3.6.31-4.9l-.1-3.77c0-1.02.17-1.7.51-2.04s.95-.56,1.84-.66c.88-.1,2.62-.15,5.2-.15.82-.07,2.28-.1,4.39-.1l6.02-.2c1.84-.07,4.42-.14,7.75-.2,3.33-.07,6.26-.1,8.77-.1,2.86,0,5,.03,6.43.1.2.07.54.1,1.02.1.54,0,1.1-.03,1.68-.1.58-.07,1.17-.1,1.79-.1,2.31,0,3.4.88,3.26,2.65.07,2.38-.1,3.82-.51,4.33-.41.51-5.92.87-16.52,1.07-.27,0-.39.04-.36.1.03.07.05.17.05.31-.14,4.96-.44,11.46-.92,19.48l2.75-.1c2.45-.14,4.32-.2,5.61-.2,2.51,0,4.83.24,6.94.71.75.34,1.12,1.12,1.12,2.35,0,.48-.07,1.12-.2,1.94-.14.82-.24,1.53-.31,2.14-.27,1.09-1.02,1.63-2.24,1.63-.61,0-1.09-.03-1.43-.1-1.43-.07-3.88-.1-7.34-.1-2.58,0-4.35.07-5.3.2l-.92,12.24c1.09-.34,2.45-.51,4.08-.51,1.02,0,2.19.07,3.52.2,1.33.14,2.26.24,2.81.31,1.9.14,3.06.2,3.47.2,1.22.07,2.07.17,2.55.31.47.14.8.48.97,1.02.17.55.26,1.53.26,2.96l-.1,6.02.31,5.41.1,2.96c0,1.16-.22,1.92-.66,2.29-.44.37-1.41.56-2.91.56-1.16,0-2.14-.04-2.96-.1l-6.83-.1c-1.63,0-3.04-.04-4.23-.1ZM336.34,71.6c-.04-.2-.05-.34-.05-.41h-.2v.92c.2-.14.29-.31.25-.51ZM337.31,17.24c.14-.07.29-.1.46-.1h.56c-.41-.14-.88-.2-1.43-.2.07,0,.2.1.41.31ZM340.98,75.84c.61-.03,1.02-.05,1.22-.05-.27-.27-.65-.39-1.12-.36-.48.04-.78.05-.92.05v.1c-.07.2.2.29.82.26ZM341.49,71.5h-.41v.2c.07.07.2,0,.41-.2ZM341.69,26.52c0,.27.03.44.1.51,0-.34.12-.7.36-1.07.24-.37.39-.66.46-.87-.07.2-.41.44-1.02.71.07.2.1.44.1.71ZM344.96,17.65c-.34,0-.61-.03-.82-.1,0,.2-.07.51-.2.92l1.02-.82ZM346.33,64.46c.24-.07.32-.17.25-.31-.07,0-.24.05-.51.15-.27.1-.34.22-.2.36.07-.07.22-.14.46-.2ZM346.49,49.47c.14-.2.2-.37.2-.51l-.2-.2c-.2.61-.34.99-.41,1.12.14-.07.27-.2.41-.41ZM349.65,56.81c-.07-.54-.09-1.02-.05-1.43.03-.41.05-.75.05-1.02l-.82,2.45c.2-.14.47-.14.82,0ZM351.38,17.95h-.31c-.27,0-.49.15-.66.46-.17.31-.29.53-.36.66.34-.2.78-.58,1.33-1.12ZM357.5,37.13l.2-3.77c-.07.2-.14.43-.2.66-.07.24-.17.49-.31.77l.31,2.35ZM357.91,25.7c0-1.09.03-1.9.1-2.45l-.41,2.24.31.2ZM358.12,18.36v-.51l-.41.1.41.41ZM360.56,75.99l-.1-.71-.1.71h.2ZM364.13,44.68c-.27-.48-.41-.98-.41-1.53h-.82v1.63c.27-.07.68-.1,1.22-.1ZM365.36,15.81c-.07-.27.03-.54.31-.82-.68,0-1.19-.03-1.53-.1v.92h1.22ZM368.62,64.46c.2-.07.34-.14.41-.2h-.51l.1.2ZM370.36,15.81l.1-.1.51-.41c-.2-.07-.48-.1-.82-.1l.2.61ZM374.59,44.12c.44-.03.66-.15.66-.36-.55,0-.95-.03-1.22-.1-.07.34.12.49.56.46Z"/>
      <path class="cls-1" d="M390.8,8.11c1.33-.78,2.67-1.17,4.03-1.17,1.29,0,2.5.34,3.62,1.02,1.12.68,2.02,1.67,2.7,2.96.95,1.63,1.43,3.57,1.43,5.81,0,3.54-1.11,6.97-3.31,10.3-2.21,3.33-4.91,5.51-8.11,6.53-.82-.14-1.5-.54-2.04-1.22-.55-.68-.82-1.43-.82-2.24,0-.61.27-1.26.82-1.94,1.02-.88,1.97-2.04,2.86-3.47-1.77-.47-3.13-1.51-4.08-3.11-.95-1.6-1.43-3.38-1.43-5.35s.41-3.57,1.22-5c.75-1.29,1.79-2.33,3.11-3.11ZM390.86,12.44c.2-.2.27-.37.2-.51-.07.07-.31.41-.71,1.02.14-.14.31-.31.51-.51ZM392.59,17.85v.31c0,.41.27.65.82.71v-.2c0-.41-.24-.78-.71-1.12h-.1v.31ZM394.02,28.05c0-.2.08-.34.25-.41.17-.07.32-.03.46.1l.2-.2c-.07-.07-.17-.1-.31-.1-.27,0-.51.14-.71.41-.2.27-.17.41.1.41v-.2ZM396.06,18.46c0-.2-.02-.34-.05-.41-.04-.07-.05-.14-.05-.2l-.2.1.31.51ZM399.22,14.89c0-.27-.07-.68-.2-1.22-.14.07-.27.24-.41.51-.14.27-.24.48-.31.61h.31c.27-.07.48-.03.61.1Z"/>
      <path class="cls-1" d="M408.4,65.18c-.48-2.45-.71-5-.71-7.65,0-3.26.41-6.02,1.22-8.26s2.04-3.37,3.67-3.37c1.5,0,3.3,1.09,5.41,3.26.14.68.2,1.26.2,1.73,0,.54-.07,1.56-.2,3.06,0,.41-.05,1.09-.15,2.04-.1.95-.15,1.84-.15,2.65,0,3.94.92,7.38,2.75,10.3,1.36,1.09,2.89,1.63,4.59,1.63s3.4-.58,4.9-1.73c1.49-1.16,2.55-2.72,3.16-4.69.54-1.63.82-3.16.82-4.59,0-3.2-.94-6.44-2.81-9.74-1.87-3.3-4.71-7.4-8.52-12.29-3.4-4.49-6.04-8.21-7.9-11.17-1.87-2.96-3.04-5.97-3.52-9.03-.2-2.65.36-5.03,1.68-7.14,1.33-2.11,3.18-3.76,5.56-4.95,2.38-1.19,5-1.79,7.85-1.79,2.11,0,4.28.37,6.53,1.12,3.47.75,6.31,2.07,8.52,3.98,2.21,1.9,3.35,4.59,3.42,8.06,0,.2.03.46.1.77.07.31.1.7.1,1.17,0,2.65-2.69,4.08-8.06,4.28-.48-.2-.85-.63-1.12-1.27-.27-.65-.44-1.04-.51-1.17-.41-1.29-.88-2.31-1.43-3.06-2.11-1.84-4.01-2.75-5.71-2.75-1.16,0-2.04.43-2.65,1.27-.61.85-.92,1.96-.92,3.31,0,2.65.98,5.27,2.96,7.85.61,1.09,1.44,2.41,2.5,3.98,1.05,1.56,1.82,2.72,2.29,3.47,3.81,5.58,6.75,10.4,8.82,14.48,2.07,4.08,3.11,8.16,3.11,12.24,0,5.58-2.41,10.64-7.24,15.2-3.4,2.79-7.14,4.18-11.22,4.18-3.13,0-6.05-.87-8.77-2.6-2.72-1.73-4.93-4.23-6.63-7.5-.82-1.09-1.46-2.86-1.94-5.3ZM412.28,54.26c-.14,0-.2-.03-.2-.1,0,.14-.04.2-.1.2.14,0,.24-.03.31-.1ZM412.07,61.61c0-.14.03-.2.1-.2l-.1-.2v.41ZM412.68,52.63c.2.07.34.04.41-.1-.07-.07-.17-.1-.31-.1s-.24-.03-.31-.1v.1c-.07.07,0,.14.2.2ZM412.89,60.18c.27,0,.41.15.41.46s-.14.43-.41.36v.2c.14,0,.27.07.41.2,0-.14.03-.24.1-.31.07-.27.2-.46.41-.56s.44-.12.71-.05l-.1-.92c-.2.41-.51.61-.92.61-.2,0-.44-.14-.71-.41-.14.2-.2.38-.2.51.07-.07.17-.1.31-.1ZM413.6,67.22c.14-.14.2-.31.2-.51,0-.27-.14-.58-.41-.92-.27-.34-.48-.61-.61-.82l.82,2.24ZM415.23,65.48l-.1-.51c-.14.14-.14.31,0,.51h.1ZM415.74,67.93c0,.48.2.68.61.61l-.41-1.22c-.14.27-.2.48-.2.61ZM416.97,13.01c-.07-.17-.1-.29-.1-.36l-.41.82c.41-.14.58-.29.51-.46ZM417.99,22.44v-.41c-.14,0-.24-.03-.31-.1l.31.51ZM420.74,12.34c.14-.14.24-.31.31-.51-.14-.07-.34-.1-.61-.1-.34,0-.61.07-.82.2-.2.14-.31.27-.31.41,0,.34.37.51,1.12.51.07-.2.17-.37.31-.51ZM422.58,8.67c-.48.07-.92.24-1.33.51l-.31.1c.95,0,1.5-.2,1.63-.61ZM423.39,75.68c-.07-.2-.17-.32-.31-.36-.14-.03-.24-.05-.31-.05,0,.07-.07.17-.2.31l.82.1ZM431.86,9.28c0-.07.07-.17.2-.31-.14,0-.24-.03-.31-.1-.07-.07-.17-.1-.31-.1l.41.51ZM434.31,72.01l-.31-.31-.41.41c.14-.07.37-.1.71-.1ZM434.41,10.61l.1-.71-.2-.1c0,.34-.04.58-.1.71.14,0,.2.04.2.1ZM435.74,69.97c.14-.34.37-.65.71-.92.34-.27.58-.44.71-.51l-.41-.31c-.27.27-.51.56-.71.87-.2.31-.41.6-.61.87h.31ZM438.08,17.54l-.2.2c.14.61.2.55.2-.2ZM441.14,15.5v-.61l-.41.51.41.1ZM441.24,18.51c.07-.03.17-.05.31-.05l-.31-.41c0,.2-.07.37-.2.51.07,0,.14-.02.2-.05Z"/>
      <path class="cls-1" d="M487.6,93.59c-.78.17-1.34.25-1.68.25-.82,0-1.16-.37-1.02-1.12l-.1-.1c-.48.07-.8-.14-.97-.61-.17-.48-.26-1.33-.26-2.55v-4.18c0-3.2-.1-5.85-.31-7.96-.95-6.05-1.43-14.14-1.43-24.28,0-5.03.03-8.91.1-11.63l.1-13.97c-.14-.88-.37-2.36-.71-4.44-.34-2.07-.58-3.65-.71-4.74.61-1.36,1.58-2.38,2.91-3.06,1.33-.68,3.33-1.22,6.02-1.63,2.69-.41,7.16-.92,13.41-1.53l4.69-.51c5.71-.68,10.1-1.36,13.16-2.04.61-.14,1.26-.31,1.94-.51.68-.2,1.19-.31,1.53-.31.54,0,.93.29,1.17.87.24.58.32,1.62.25,3.11.07.41.14.82.2,1.22.07.41.1.78.1,1.12,0,.68-.29,1.12-.87,1.33-.58.2-1.99.41-4.23.61-.82.14-2.23.31-4.23.51-2.01.2-4.03.48-6.07.82.14,2.24.27,5.68.41,10.3.14,4.62.27,8.06.41,10.3l3.57-.61c1.43-.2,2.99-.47,4.69-.82.41,0,1.12-.17,2.14-.51,1.5-.54,2.62-.82,3.37-.82.88,0,1.33.41,1.33,1.22,0,.34-.04.61-.1.82-.14.27-.2.48-.2.61,0,.34.07.73.2,1.17.14.44.24.83.31,1.17-.07-.27.17.88.71,3.47.34,1.16.51,2.01.51,2.55,0,.75-.34,1.31-1.02,1.68-.68.37-1.8.68-3.37.92-1.57.24-4.28.56-8.16.97-.41,0-.83.1-1.27.31-.44.2-.94.41-1.48.61-.27-.14-.44.1-.51.71-.07.61-.1,1.6-.1,2.96,0,4.42.41,11.25,1.22,20.5l.51,8.06.41,4.79c.34.2.51.54.51,1.02,0,.54-.2,1.02-.61,1.43s-.88.44-1.43.1c-.41.68-.85,1.02-1.33,1.02-.07,0-.44-.07-1.12-.2-.41-.07-1.02-.1-1.84-.1s-2.31.14-4.49.41c-3.74.68-8.64,1.05-14.69,1.12-.27-.07-.8-.02-1.58.15ZM485.1,21.73c-.34.34-.48.55-.41.61l.41-.61ZM485,33.46c.07-.27.1-.75.1-1.43,0-.61-.05-1.41-.15-2.4-.1-.98-.12-1.79-.05-2.4l-.1.1c0,4.01.07,6.05.2,6.12ZM485.41,36.11c0,.34.07.63.2.87.14.24.37.39.71.46-.07-.07-.1-.17-.1-.31-.14-.14-.27-.44-.41-.92-.14-.48-.31-.78-.51-.92.07.2.1.48.1.82ZM485.41,62.73c.14-.07.2-.31.2-.71,0-.27-.04-.63-.1-1.07-.07-.44-.07-.8,0-1.07h-.2l.1,2.86ZM486.63,17.65c.34,0,.68-.14,1.02-.41h-1.63v.31l.61.1ZM486.94,54.11c0-.31-.1-.56-.31-.77v1.94c.2-.48.31-.87.31-1.17ZM486.83,79.76h.1v-.2c0-.14.02-.31.05-.51.03-.2-.05-.34-.25-.41l.1,1.12ZM487.65,90.98c-.14-.07-.25-.15-.36-.26-.1-.1-.19-.19-.25-.25-.07.2-.1.48-.1.82.14,0,.37-.1.71-.31ZM488.47,65.28c-.2.07-.31.37-.31.92l.31-.92ZM488.77,78.23l.2-.41-.31.31.1.1ZM490.81,90.07l-.2-.41-.31.51.51-.1ZM491.17,66.35c.1-.31.19-.56.25-.76h-.1c-.07.41-.14.71-.2.92-.07.2-.1.41-.1.61,0-.2.05-.46.15-.77ZM492.04,23.97c0-.14.07-.34.2-.61-.68-.41-1.02-.41-1.02,0,0,.54.27.75.82.61ZM492.04,86.5h.41c-.14-.2-.24-.37-.31-.51-.07-.14-.1-.24-.1-.31,0,.2-.07.37-.2.51.14.14.2.24.2.31ZM495.81,64.26c-.07-.2-.2-.34-.41-.41-.2-.07-.34-.17-.41-.31v.2c.07,0,.34.17.82.51ZM496.58,69c.03.17.08.29.15.36l-.1-.92c-.07.2-.09.39-.05.56ZM497.24,76.5l-.41-.71-.1.92c.27-.14.44-.2.51-.2ZM498.36,21.73l.2-.82h-.51l.31.82ZM498.46,79.97l-.1-.41-.1.1c0,.07.07.17.2.31ZM501.01,36.92c0-.95-.17-1.46-.51-1.53v.31l.51,1.22ZM501.32,87.92l-.31-.1-.1.2c.2,0,.34-.04.41-.1ZM505.5,14.69l-3.88.31c1.5,0,2.79-.1,3.88-.31ZM502.85,62.93l.2-.71c-.27.14-.44.2-.51.2l.31.51ZM504.07,59.26v-.61c0-.61.03-1.05.1-1.33-.07.27-.15.63-.25,1.07-.1.44-.12.73-.05.87h.2ZM505.19,24.17l-.2-.51v.31l.2.2ZM506.27,19.74c.24.17.39.32.46.46.07-.14-.05-.41-.36-.82-.31-.41-.49-.51-.56-.31.07.27.22.49.46.66ZM508.05,85.78l-.1-.2-.2.2h.31ZM508.46,81.8v-.82l-.31.82h.31ZM509.79,14.48c.75,0,1.29-.14,1.63-.41l-2.45.31.82.1ZM509.07,53.75c0,.2-.03.34-.1.41.14-.07.17-.2.1-.41ZM509.68,59.87c.2,0,.31-.31.31-.92,0-.41-.05-.82-.15-1.22-.1-.41-.19-.65-.25-.71l-.51,1.53.61,1.33ZM510.5,67.52l-.2-2.75-.2.31.41,2.45ZM511.83,48.86l.61-.31c-.14-.14-.2-.44-.2-.92-.14.07-.31.1-.51.1v1.02c.07,0,.1.04.1.1ZM512.33,14.28c.61-.07,1.29-.24,2.04-.51l-2.24.31c.14,0,.2.07.2.2ZM514.38,41.31h-.51v.31l.51-.31ZM514.17,44.57l.31-.92c-.14,0-.27.1-.41.31,0,.27.03.48.1.61ZM520.04,42.74c.1-.14.19-.24.25-.31l-.41.2c0,.2.05.24.15.1ZM522.64,13.57c-.07-.34-.1-.78-.1-1.33-.41.14-.71.2-.92.2v.1c.2.2.31.37.31.51,0,.27-.17.46-.51.56-.34.1-.58.09-.71-.05-.14.14-.24.2-.31.2.95-.14,1.7-.2,2.24-.2ZM523.15,40.7c.07-.34.25-.56.56-.66s.53-.02.66.25c0-.34-.04-.58-.1-.71l-1.53,1.02c.2,0,.34.04.41.1Z"/>
      <path class="cls-1" d="M533.04,46.21c0-6.8,1.84-13.06,5.51-18.77,3.67-5.71,8.45-10.23,14.33-13.57,5.88-3.33,11.98-5,18.31-5s11.81,1.68,17.08,5.05c5.27,3.37,9.6,8.48,13,15.35,2.18,4.35,3.26,8.94,3.26,13.77,0,5.58-1.39,11-4.18,16.27-2.79,5.27-6.58,9.71-11.37,13.31-4.79,3.61-10.05,5.88-15.76,6.83-2.18.34-4.22.51-6.12.51-6.8,0-13.11-1.73-18.92-5.2-5.81-3.47-9.98-8.43-12.49-14.89-1.77-4.49-2.65-9.04-2.65-13.67ZM542.12,50.9c0,.48.05.94.15,1.38.1.44.2.8.31,1.07.1.27.15.31.15.1l.1.61c0,.48.1.63.31.46.2-.17.39-.54.56-1.12.17-.58.25-1.14.25-1.68,0-1.16-.48-1.73-1.43-1.73-.27,0-.41.31-.41.92ZM545.79,61.91l.82,1.33c0-.14-.27-.61-.82-1.43-.54-.82-.85-1.29-.92-1.43l.92,1.53ZM550.64,27.8c.71-.85.93-1.28.66-1.28-.48,0-.9.37-1.27,1.12-.37.75-.63,1.22-.77,1.43-.07.14-.14.27-.2.41-.07.14-.17.27-.31.41.54-.54,1.17-1.24,1.89-2.09ZM552.62,51.82c.07-.14.08-.34.05-.61-.04-.27-.09-.37-.15-.31-.34.2-.48.34-.41.41l.51.51ZM553.75,54.16c0,.14.08.32.26.56.17.24.25.29.25.15,0-.07.02-.27.05-.61.03-.34-.05-.51-.25-.51v.15s-.04.05-.1.05l-.2.1v.1ZM556.5,71.5c.14.07.19-.03.15-.31-.04-.27-.02-.44.05-.51l.31-.31.1-.1c0-.14-.17-.2-.51-.2-.41,0-.78.09-1.12.25-.34.17-.34.36,0,.56l1.02.61ZM556.4,22.64c.14,0,.2-.03.2-.1-.07-.07-.25-.15-.56-.25-.31-.1-.46-.05-.46.15,0,.14.27.2.82.2ZM560.07,39.32c.54-.71,1.07-1.41,1.58-2.09.51-.68.56-.78.15-.31l-1.84,2.35-.31.51c-.27.41-.14.25.41-.46ZM560.53,50.54c.17-.17.25-.29.25-.36-.07.07-.17.1-.31.1s-.2.04-.2.1v.2c0,.14.08.12.25-.05ZM561.24,73.64c.51.2,1,.31,1.48.31s.65-.1.51-.31c-.14-.34-.44-.66-.92-.97-.48-.31-.88-.46-1.22-.46-.41,0-.61.24-.61.71,0,.27.26.51.77.71ZM562.47,44.73c.24.1.36.09.36-.05v-.31c0-.07-.1-.08-.31-.05-.2.04-.39.09-.56.15-.17.07-.19.1-.05.1s.32.05.56.15ZM564.76,63.14v-.31l-.2.31h.2ZM566.19,56.1l-.2-.71-.1.31.31.41ZM567.31,25.04c.34.24.68.36,1.02.36.54,0,.82-.24.82-.71,0-.2-.17-.39-.51-.56-.34-.17-.68-.25-1.02-.25-.54,0-.82.14-.82.41s.17.53.51.76ZM568.89,30.19c.24.34.39.41.46.2l.51-2.45c0-.07-.04-.02-.1.15-.07.17-.2.36-.41.56-.14.14-.39.34-.76.61-.37.27-.46.41-.26.41.14,0,.32.17.56.51ZM569.3,21.22c.51.07.73,0,.66-.2-.07-.34-.19-.61-.36-.82-.17-.2-.36-.31-.56-.31-.34,0-.51.27-.51.82,0,.27.25.44.77.51ZM569.96,53.24c.07.2.07-.05,0-.77-.07-.71-.19-1.41-.36-2.09-.17-.68-.32-.95-.46-.82-.07.07-.14.1-.2.1s-.1.04-.1.1l1.12,3.47ZM568.94,45.49c.07.2.14.31.2.31,0-.07.02-.19.05-.36.03-.17-.02-.26-.15-.26s-.17.1-.1.31ZM574.25,15.61l.51-.82c.07-.07.03-.1-.1-.1s-.29.04-.46.1c-.17.07-.29.14-.36.2l.41.61ZM576.8,61.71c.14-.34.24-.63.31-.87.07-.24.1-.42.1-.56l.1-.41c.07-.41-.05-.34-.36.2-.31.54-.58,1.12-.82,1.73-.24.61-.25.85-.05.71.34-.2.58-.48.71-.82ZM577.31,33.05c.07.95.17,1.39.31,1.33.2-.2.31-.47.31-.82s-.07-.75-.2-1.22c-.14-.47-.24-.82-.31-1.02-.07,0-.15.03-.25.1-.1.07-.25.14-.46.2.34,0,.54.48.61,1.43ZM579.86,22.85c.14,0,.17-.03.1-.1l-.2-.31.1.41ZM580.37,16.22c0,.2.29.44.87.71.58.27.87.24.87-.1,0-.14-.03-.2-.1-.2h-.31l-.82-.31c-.07-.07-.2-.1-.41-.1h-.1ZM580.78,28.66c.47,0,.71-.07.71-.2,0-.2-.09-.29-.25-.25-.17.04-.34.12-.51.25-.17.14-.19.2-.05.2h.1ZM582,63.95c.41-.68.61-1.26.61-1.73s-.14-.41-.41.2c-.27.61-.51,1.27-.71,1.99-.2.71-.24.94-.1.66l.61-1.12ZM583.28,56.76c.1.04.12.02.05-.05-.07-.07-.09-.17-.05-.31.03-.14.02-.17-.05-.1l-.1.31c0,.07.05.12.15.15ZM583.73,19.99c0,.14.29.31.87.51.58.2.87.2.87,0l.1-.31v-.2c0-.14-.1-.2-.31-.2s-.44.04-.71.1c-.27.07-.51.1-.71.1h-.1ZM587.41,43.6c.07.17.2.26.41.26s.41-.12.61-.36c.2-.24.34-.39.41-.46l.1-.2c0-.14-.15-.25-.46-.36-.31-.1-.56-.15-.76-.15l-.1.1c0,.07-.05.14-.15.2-.1.07-.15.14-.15.2,0,.34.03.6.1.76ZM591.08,24.28l.2-.1c-.07,0-.2-.1-.41-.31l.2.41ZM598.83,41c.2,0,.31-.2.31-.61,0-.34-.05-.65-.15-.92-.1-.27-.22-.41-.36-.41-.2,0-.38.2-.51.61-.14.41-.17.78-.1,1.12.07.34.17.44.31.31.07-.07.24-.1.51-.1Z"/>
      <path class="cls-1" d="M609.74,17.34l-.1-2.96c0-2.18.51-3.69,1.53-4.54,1.02-.85,2.96-1.43,5.81-1.73,2.86-.31,8.26-.59,16.22-.87l7.34.31c7.48.2,13.77.68,18.87,1.43,5.1.75,9.71,2.52,13.82,5.3,4.11,2.79,6.58,7,7.4,12.65.41,1.84.61,3.57.61,5.2,0,4.96-1.56,9.21-4.69,12.75-3.13,3.54-7.55,6.05-13.26,7.55.68,1.77,1.97,4.62,3.88,8.57,2.51,5.17,4.39,9.42,5.61,12.75.27,1.43-.82,2.48-3.26,3.16-2.45.68-5.61,1.26-9.49,1.73l-2.24.31c-1.22.14-2.23.27-3.01.41-.78.14-1.45.2-1.99.2-.82,0-1.46-.41-1.94-1.22-.48-.82-1.39-2.82-2.75-6.02-2.04-5.1-4.39-10.57-7.04-16.42-.14-.41-.27-.66-.41-.76-.14-.1-.48-.15-1.02-.15-.34,0-.95.02-1.84.05-.88.04-2.24.05-4.08.05-2.45,0-4.52-.03-6.22-.1-.07.07,0,1.46.2,4.18.48,5.85.71,10.34.71,13.46,0,3.4-.27,5.37-.82,5.92-.61.68-3.06,1.09-7.34,1.22l-2.65.2c-2.72,0-4.44-.14-5.15-.41-.71-.27-1.11-.76-1.17-1.48-.07-.71-.17-3.82-.31-9.33-.27-17.2-.61-32.2-1.02-44.98.07-1.09,0-3.23-.2-6.43ZM613.93,32.03h.51v-.2c0-.48-.2-.82-.61-1.02l.1,1.22ZM614.64,39.47v-1.33h-.2c.14.68.2,1.12.2,1.33ZM616.99,76.09c-.41-.2-.68-.65-.82-1.33-.14-.68-.34-1.12-.61-1.33v2.96l1.43-.31ZM624.38,11.68c.1-.24.19-.42.25-.56h-.92v1.12c.34-.14.56-.32.66-.56ZM624.74,32.79c.07-.44-.04-.76-.31-.97-.34.27-.48.65-.41,1.12.07.48.1.78.1.92.34-.27.54-.63.61-1.07ZM624.94,44.17c.2-.34.31-.75.31-1.22s-.07-.99-.2-1.53c-.07.07-.17.1-.31.1.14,1.09.2,1.97.2,2.65ZM633,20.91l.61-.82-.1-.1h-.92c.14.2.27.51.41.92ZM637.18,11.93c.27-.14.53-.27.77-.41.24-.14.42-.24.56-.31-.95,0-1.63-.03-2.04-.1l.71.82ZM638.3,48.86c-.07-.07-.14-.1-.2-.1s-.1-.03-.1-.1l-.2.2h.51ZM649.32,57.12c.07.14.14.27.2.41-.07-.07-.14-.27-.2-.61-.07-.34-.17-.41-.31-.2.14.14.24.27.31.41ZM656.46,74.05c-.2-.07-.6-.12-1.17-.15-.58-.03-.97-.12-1.17-.26l.2.61,2.14-.2ZM669.36,45.8c.1-.07.19-.14.25-.2l-.71.41c.2-.07.36-.14.46-.2Z"/>
      <path class="cls-1" d="M716.94,13.67c0-.61.75-1.43,2.24-2.45,4.96-3.33,10-5.92,15.1-7.75.75-.14,1.34.09,1.78.66.44.58,1.56,2.94,3.37,7.09,1.8,4.15,4.23,9.93,7.29,17.34,1.22-2.72,2.58-5.92,4.08-9.59,1.02-2.45,2.11-4.98,3.26-7.6,1.16-2.62,2.31-4.98,3.47-7.09-.07-.2.42-.37,1.48-.51,1.05-.14,2.26-.2,3.62-.2,2.31,0,3.71.2,4.18.61.07.07.15.14.25.2.1.07.15.24.15.51,0,1.22-1.73,5.92-5.2,14.08-3.47,8.16-10.3,23.36-20.5,45.59-.48,1.09-.99,2.38-1.53,3.88-.54,1.5-.95,2.62-1.22,3.37-1.63,4.83-3.16,8.43-4.59,10.81-.27.14-.7.14-1.27,0-.58-.14-1.34-.31-2.3-.51-.95-.2-2.38-.44-4.28-.71-.34-.2-.44-.56-.31-1.07.14-.51.95-2.7,2.45-6.58,1.49-3.88,3.6-9.28,6.32-16.22.14-.75.36-1.33.66-1.73.31-.41.46-.71.46-.92,0-.34-.25-1.07-.77-2.19-.51-1.12-1.27-2.67-2.29-4.64-4.56-9.32-8.67-17.92-12.34-25.81-.07-.2-.41-.92-1.02-2.14-1.16-2.45-1.8-4.22-1.94-5.3-.41-.27-.61-.65-.61-1.12ZM723.17,17.24l.2-.71c-.2,0-.34-.03-.41-.1l.2.82ZM724.8,11.22l-1.02.71c.61-.41.95-.65,1.02-.71ZM726.02,19.99c0-.14.07-.27.2-.41-.14,0-.24.02-.31.05-.07.04-.14.05-.2.05l.31.31ZM728.16,31.21c.2-.88.24-1.43.1-1.63,0,.61-.1,1.02-.31,1.22.14.14.2.27.2.41ZM728.83,10.61c.1-.07.25-.14.46-.2v-.41c-.2.14-.44.41-.71.82.07-.07.15-.14.25-.2ZM729.95,19.07c.1-.68.22-1.26.36-1.73v-.31c-.07.2-.24.61-.51,1.22-.27.61-.41,1.12-.41,1.53,0,.34.1.61.31.82.07-.34.15-.85.26-1.53ZM729.49,78.74c.27,0,.75-.07,1.43-.2h-.1c-.14,0-.34-.08-.61-.25-.27-.17-.44-.25-.51-.25l-.31.71h.1ZM731.33,77.11c-.07-.2-.19-.34-.36-.41-.17-.07-.29-.03-.36.1l.71.31ZM731.68,73.7c.17-.17.29-.36.36-.56.07-.2.1-.51.1-.92l-.82,1.94c.07-.14.19-.29.36-.46ZM733.26,41.62c0-.34-.12-.68-.36-1.02-.24-.34-.39-.61-.46-.82l.82,1.84ZM735.81,64.06l-.1.1.1-.1ZM735.92,63.85l-.1.1c.07,0,.1-.03.1-.1ZM737.14,12.95c-.14-.34-.2-.34-.2,0h.2ZM737.55,60.49v-.31l-.2.2.2.1ZM737.85,24.48c0-.27.03-.44.1-.51-.2.14-.36.34-.46.61-.1.27-.12.48-.05.61l.41-.71ZM739.69,19.07c-.07-.14-.12-.24-.15-.31-.04-.07-.05-.14-.05-.2,0,.2-.03.34-.1.41.14,0,.24.04.31.1ZM739.59,35.04c.2.1.31.19.31.25,0-.2-.04-.34-.1-.41-.07-.07-.17-.1-.31-.1-.14.07-.1.15.1.25ZM740.51,21.22c.2.34.34.54.41.61l-.61-1.33c-.07.14,0,.37.2.71ZM740.66,56.51c.1-.07.15-.14.15-.2-.07.07-.24.1-.51.1v.1c.14.07.25.07.36,0ZM741.93,49.98v-.2c-.07.14-.2.48-.41,1.02l.41-.82ZM743.21,46.67c.03-.24.12-.42.25-.56v-.1l-.51,1.22c.14-.14.22-.32.25-.56ZM743.67,31.82c.07.14.14.27.2.41l.1-.61-.51-.51c.07.34.14.58.2.71ZM748.16,42.84h.1l.1-.2h-.41l.2.2ZM748.67,41.31l-.2-.1c.14.2.2.24.2.1ZM753.26,22.54v-.1l.61-.92c-.07-.07-.15-.1-.25-.1s-.19-.03-.26-.1c-.2.27-.31.49-.31.66s-.04.29-.1.36c.07,0,.17.07.31.2ZM754.17,20.09c.14.07.24.1.31.1l.2-.41c-.2.14-.44.14-.71,0,0,.14.07.24.2.31ZM759.48,6.53h-.31c-.2,0-.32.14-.36.41-.04.27-.09.48-.15.61.14-.27.41-.61.82-1.02ZM764.27,6.83h-.31c-.07.2-.17.44-.31.71-.14.27-.17.51-.1.71l.71-1.43Z"/>
      <path class="cls-1" d="M761.11,46.21c0-6.8,1.84-13.06,5.51-18.77,3.67-5.71,8.45-10.23,14.33-13.57,5.88-3.33,11.98-5,18.31-5s11.81,1.68,17.08,5.05c5.27,3.37,9.6,8.48,13,15.35,2.18,4.35,3.26,8.94,3.26,13.77,0,5.58-1.39,11-4.18,16.27-2.79,5.27-6.58,9.71-11.37,13.31-4.79,3.61-10.05,5.88-15.76,6.83-2.18.34-4.22.51-6.12.51-6.8,0-13.11-1.73-18.92-5.2-5.81-3.47-9.98-8.43-12.49-14.89-1.77-4.49-2.65-9.04-2.65-13.67ZM770.19,50.9c0,.48.05.94.15,1.38.1.44.2.8.31,1.07.1.27.15.31.15.1l.1.61c0,.48.1.63.31.46.2-.17.39-.54.56-1.12.17-.58.25-1.14.25-1.68,0-1.16-.48-1.73-1.43-1.73-.27,0-.41.31-.41.92ZM773.86,61.91l.82,1.33c0-.14-.27-.61-.82-1.43-.54-.82-.85-1.29-.92-1.43l.92,1.53ZM778.71,27.8c.71-.85.93-1.28.66-1.28-.48,0-.9.37-1.27,1.12-.37.75-.63,1.22-.77,1.43-.07.14-.14.27-.2.41-.07.14-.17.27-.31.41.54-.54,1.17-1.24,1.89-2.09ZM780.7,51.82c.07-.14.08-.34.05-.61-.04-.27-.09-.37-.15-.31-.34.2-.48.34-.41.41l.51.51ZM781.82,54.16c0,.14.08.32.26.56.17.24.25.29.25.15,0-.07.02-.27.05-.61.03-.34-.05-.51-.25-.51v.15s-.04.05-.1.05l-.2.1v.1ZM784.57,71.5c.14.07.19-.03.15-.31-.04-.27-.02-.44.05-.51l.31-.31.1-.1c0-.14-.17-.2-.51-.2-.41,0-.78.09-1.12.25-.34.17-.34.36,0,.56l1.02.61ZM784.47,22.64c.14,0,.2-.03.2-.1-.07-.07-.25-.15-.56-.25-.31-.1-.46-.05-.46.15,0,.14.27.2.82.2ZM788.14,39.32c.54-.71,1.07-1.41,1.58-2.09.51-.68.56-.78.15-.31l-1.84,2.35-.31.51c-.27.41-.14.25.41-.46ZM788.6,50.54c.17-.17.25-.29.25-.36-.07.07-.17.1-.31.1s-.2.04-.2.1v.2c0,.14.08.12.25-.05ZM789.31,73.64c.51.2,1,.31,1.48.31s.65-.1.51-.31c-.14-.34-.44-.66-.92-.97-.48-.31-.88-.46-1.22-.46-.41,0-.61.24-.61.71,0,.27.26.51.77.71ZM790.54,44.73c.24.1.36.09.36-.05v-.31c0-.07-.1-.08-.31-.05-.2.04-.39.09-.56.15-.17.07-.19.1-.05.1s.32.05.56.15ZM792.83,63.14v-.31l-.2.31h.2ZM794.26,56.1l-.2-.71-.1.31.31.41ZM795.38,25.04c.34.24.68.36,1.02.36.54,0,.82-.24.82-.71,0-.2-.17-.39-.51-.56-.34-.17-.68-.25-1.02-.25-.54,0-.82.14-.82.41s.17.53.51.76ZM796.96,30.19c.24.34.39.41.46.2l.51-2.45c0-.07-.04-.02-.1.15-.07.17-.2.36-.41.56-.14.14-.39.34-.76.61-.37.27-.46.41-.26.41.14,0,.32.17.56.51ZM797.37,21.22c.51.07.73,0,.66-.2-.07-.34-.19-.61-.36-.82-.17-.2-.36-.31-.56-.31-.34,0-.51.27-.51.82,0,.27.25.44.77.51ZM798.04,53.24c.07.2.07-.05,0-.77-.07-.71-.19-1.41-.36-2.09-.17-.68-.32-.95-.46-.82-.07.07-.14.1-.2.1s-.1.04-.1.1l1.12,3.47ZM797.02,45.49c.07.2.14.31.2.31,0-.07.02-.19.05-.36.03-.17-.02-.26-.15-.26s-.17.1-.1.31ZM802.32,15.61l.51-.82c.07-.07.03-.1-.1-.1s-.29.04-.46.1c-.17.07-.29.14-.36.2l.41.61ZM804.87,61.71c.14-.34.24-.63.31-.87.07-.24.1-.42.1-.56l.1-.41c.07-.41-.05-.34-.36.2-.31.54-.58,1.12-.82,1.73-.24.61-.25.85-.05.71.34-.2.58-.48.71-.82ZM805.38,33.05c.07.95.17,1.39.31,1.33.2-.2.31-.47.31-.82s-.07-.75-.2-1.22c-.14-.47-.24-.82-.31-1.02-.07,0-.15.03-.25.1-.1.07-.25.14-.46.2.34,0,.54.48.61,1.43ZM807.93,22.85c.14,0,.17-.03.1-.1l-.2-.31.1.41ZM808.44,16.22c0,.2.29.44.87.71.58.27.87.24.87-.1,0-.14-.03-.2-.1-.2h-.31l-.82-.31c-.07-.07-.2-.1-.41-.1h-.1ZM808.85,28.66c.47,0,.71-.07.71-.2,0-.2-.09-.29-.25-.25-.17.04-.34.12-.51.25-.17.14-.19.2-.05.2h.1ZM810.07,63.95c.41-.68.61-1.26.61-1.73s-.14-.41-.41.2c-.27.61-.51,1.27-.71,1.99-.2.71-.24.94-.1.66l.61-1.12ZM811.35,56.76c.1.04.12.02.05-.05-.07-.07-.09-.17-.05-.31.03-.14.02-.17-.05-.1l-.1.31c0,.07.05.12.15.15ZM811.81,19.99c0,.14.29.31.87.51.58.2.87.2.87,0l.1-.31v-.2c0-.14-.1-.2-.31-.2s-.44.04-.71.1c-.27.07-.51.1-.71.1h-.1ZM815.48,43.6c.07.17.2.26.41.26s.41-.12.61-.36c.2-.24.34-.39.41-.46l.1-.2c0-.14-.15-.25-.46-.36-.31-.1-.56-.15-.76-.15l-.1.1c0,.07-.05.14-.15.2-.1.07-.15.14-.15.2,0,.34.03.6.1.76ZM819.15,24.28l.2-.1c-.07,0-.2-.1-.41-.31l.2.41ZM826.9,41c.2,0,.31-.2.31-.61,0-.34-.05-.65-.15-.92-.1-.27-.22-.41-.36-.41-.2,0-.38.2-.51.61-.14.41-.17.78-.1,1.12.07.34.17.44.31.31.07-.07.24-.1.51-.1Z"/>
      <path class="cls-1" d="M838.32,7.85l-.1-.92c0-.47.2-.78.61-.92.27.07.82.1,1.63.1.34,0,1.07-.02,2.19-.05,1.12-.03,1.97.05,2.55.25.58.2.8.51.66.92.07,2.45.14,5.54.2,9.28.07,3.74.1,6.6.1,8.57.41.07,2.21.04,5.41-.1l5.71-.2c.07-.07,0-1.77-.2-5.1-.34-4.96-.51-8.09-.51-9.38,0-2.99.34-4.15,1.02-3.47,1.77-.41,4.25-.61,7.45-.61,1.43,0,3.23.07,5.41.2.54,4.56.95,11.63,1.22,21.22.14,4.49.27,7.82.41,10,0,1.84.03,3.4.1,4.69l.1,9.69c0,14.14-.99,25.03-2.96,32.64-.95,2.58-2.74,4.64-5.35,6.17-2.62,1.53-5.49,2.29-8.62,2.29-4.22,0-7.92-1.38-11.12-4.13-3.2-2.75-5.07-6.78-5.61-12.09-.61-8.84-.92-19.14-.92-30.91,0-8.23.2-20.77.61-37.64v-.51ZM840.47,28.15h.1c0-.07.1-.2.31-.41h-.51v.51l.1-.1ZM841.03,35.04c.03-.17.02-.29-.05-.36l-.31.1v.51c.2,0,.32-.08.36-.25ZM841.08,48.14c.14-.41.2-.71.2-.92,0-.27-.1-.51-.31-.71,0,.75.03,1.29.1,1.63ZM841.28,54.06c-.07.07-.09.26-.05.56.03.31.02.63-.05.97.27-.75.31-1.26.1-1.53ZM842.2,14.89v-.2l-.2-.1.2.31ZM842.61,12.55c-.07.14-.12.27-.15.41-.04.14-.02.24.05.31l.1-.71ZM843.42,15.66c.07-.31.07-.59,0-.87l-.31,1.63c.14-.2.24-.46.31-.77ZM843.63,82.62h.2l-.41-.51c0,.2.07.37.2.51ZM844.24,25.3v-.41l-.2.41h.2ZM847.81,76.19c.14-.14.24-.2.31-.2.14-.07.31-.1.51-.1-.14-.07-.2-.24-.2-.51l-.82.61.2.2ZM849.65,30.4h-.31l-.1.2.41-.2ZM850.46,68.14l.51-.1-.61-.82c.07.2.1.51.1.92ZM852.6,41l.2-.1c-.68-.68-1.09-.85-1.22-.51.41,0,.75.2,1.02.61ZM857.19,36.21c-.27.2-.43.34-.46.41-.04.07.12-.03.46-.31v-.1ZM857.3,32.33c.27-.2.41-.34.41-.41l-.61.31.2.1ZM858.21,74.05l1.02.31-1.12-.92c.07.14.1.34.1.61ZM858.77,65.08c.03.07.08.1.15.1,0-.2.03-.36.1-.46.07-.1.07-.22,0-.36l-.51.51v.1c.14,0,.22.04.25.1ZM859.03,8.16l-.31,1.02c.48-.07.58-.41.31-1.02ZM859.34,41.82l-.41-.2c0,.2-.04.37-.1.51l.51-.31ZM859.34,21.22c.14,0,.2-.14.2-.41,0-.34-.05-.63-.15-.87-.1-.24-.15-.39-.15-.46l.1,1.73ZM859.64,24.68h.1c.07-.2.07-.39,0-.56-.07-.17-.1-.29-.1-.36h-.1c.07.2.1.51.1.92ZM861.07,89.15l.2-.41c-.48.34-1.02.68-1.63,1.02l1.43-.61ZM860.87,58.34c0-.14-.09-.31-.25-.51-.17-.2-.29-.37-.36-.51v1.73c.41-.2.61-.44.61-.71ZM861.58,11.42l.1-.71-.41.41v.31h.31ZM863.42,87.82l.2-.2c-.27.07-.46.14-.56.2-.1.07-.15.17-.15.31l.51-.31ZM863.21,12.75v.1c.07-.07.14-.24.2-.51.07-.27.07-.44,0-.51l-.2.61v.31ZM864.03,29.17l.1-.2v-.2l-.2.1c0,.14.03.24.1.31ZM864.13,44.78l-.1-.31-.1.41.2-.1ZM864.74,55.18v-.71c-.41,1.02-.48,1.63-.2,1.84l.2-1.12ZM864.84,52.63c0-.2-.04-.37-.1-.51-.07-.14-.1-.24-.1-.31-.07.27,0,.54.2.82ZM867.09,33.35c0-.27-.03-.47-.1-.61,0,.07-.02.12-.05.15-.04.04-.05.09-.05.15l.2.31ZM868.01,56.2h.41l-.1-1.22c-.07.07-.2.1-.41.1.07.27.1.65.1,1.12ZM868.01,51.31c0,.27.07.61.2,1.02,0-1.16-.04-2-.1-2.55l-.1,1.53ZM868.21,24.68h.41c.07-.14-.04-.27-.31-.41l-.2.2.1.2ZM868.41,7.65l.31-.2h-.51l.2.2ZM868.52,10.51v-.51l-.31.51h.31ZM868.31,67.12c.07-.61.1-1.53.1-2.75h-.2c.07.61.1,1.53.1,2.75ZM869.54,9.18c.07-.07.08-.19.05-.36-.03-.17-.05-.36-.05-.56-.14.27-.17.48-.1.61l.1.31Z"/>
    </g>
    <g>
      <path class="cls-1" d="M47.86,122.66l.07.07c-.4,4.77-1.09,11.93-2.07,21.48-.18,2.01-.53,5.59-1.04,10.74-.51,5.15-.95,9.83-1.3,14.02-.22.09-.65.13-1.27.13h-4.22c-.58-1.11-1.06-2.39-1.44-3.81-.38-1.43-.81-3.26-1.3-5.49-.13-.62-.3-1.37-.5-2.24-.2-.87-.43-1.84-.7-2.91h-.07l-1.67,7.03c-.36,1.61-.7,3.09-1.04,4.45-.33,1.36-.64,2.26-.9,2.71-1.25.22-2.34.33-3.28.33-.67,0-1.52-.07-2.54-.2h-.07l-.8-5.55c-1.25-8.56-2.21-15.96-2.88-22.18s-1.07-12.37-1.2-18.43v-.07c.71-.09,1.78-.18,3.21-.27.94,0,2.07.05,3.41.13.13,1.29.27,4.01.4,8.16.31,6.82.64,12.47.97,16.93.33,4.46.84,7.94,1.51,10.44.67-2.36,1.27-4.69,1.81-6.99.54-2.3,1.34-5.94,2.41-10.94l.07-.27c.62,1.47,1.61,4.77,2.94,9.9,1.03,3.84,1.58,5.87,1.67,6.09.09.45.36,1.32.8,2.61.62-6.82,1.1-13.07,1.44-18.73.33-5.66.52-8.92.57-9.77.13-3.39.27-5.78.4-7.16v-.07c.94-.22,1.96-.33,3.08-.33.89,0,2.07.07,3.55.2Z"/>
      <path class="cls-1" d="M55.83,152.37v1.2l-.07,1.94c0,5.53,2.72,8.3,8.16,8.3,2.18,0,3.8-.5,4.85-1.51,1.05-1,1.57-2.38,1.57-4.11,0-.27-.04-.76-.13-1.47.94-.13,1.81-.2,2.61-.2.71,0,1.25.02,1.61.07.27,0,.59.01.97.03.38.02.81.01,1.3-.03.04,2.54-.04,4.57-.27,6.09-.22,1.52-.76,2.97-1.61,4.35-.8,1.2-2.2,2.06-4.18,2.58-1.99.51-4.16.77-6.52.77-1.07,0-2.06-.04-2.98-.13-.92-.09-1.48-.18-1.71-.27-3.48-.58-6-2.78-7.56-6.59-1.56-3.81-2.23-8.17-2.01-13.08.04-.36.11-1.1.2-2.24.09-1.14.21-2.31.37-3.51s.46-2.39.9-3.55c.85-1.96,2.39-3.48,4.62-4.55,2.23-1.07,4.71-1.61,7.43-1.61,1.43,0,2.92.18,4.48.54,6.07,1.03,9.1,5.6,9.1,13.72,0,.67-.04,1.63-.13,2.88-.85.27-3.34.49-7.49.67-.49.04-1.56.07-3.21.07-3.52,0-6.13-.04-7.83-.13-1.12,0-1.94-.07-2.48-.2ZM72.09,147.35c-.04-1.38-.39-2.74-1.04-4.08-.65-1.34-1.57-2.39-2.78-3.14-.67-.31-1.25-.51-1.74-.6-.49-.09-1.12-.13-1.87-.13-2.9,0-4.96.6-6.19,1.81-1.23,1.2-2,2.92-2.31,5.15-.09.54-.13.89-.13,1.07,0,.54.26.89.77,1.07.51.18,1.62.27,3.31.27s3.05-.02,4.21-.07c4.28,0,6.69-.02,7.23-.07.22-.04.37-.1.43-.17.07-.07.1-.19.1-.37v-.74Z"/>
      <path class="cls-1" d="M82.26,120.65l6.09.2c0,1.83-.04,6.36-.13,13.58-.09,8.92-.13,15.92-.13,21.01,0,5.62.07,10.1.2,13.45-.27.31-1,.47-2.21.47l-2.07-.07c-.4-.04-.89-.07-1.47-.07-.36,0-.58.02-.67.07.27-3.61.4-7.25.4-10.91,0-2.77-.09-6.91-.27-12.44-.18-5.53-.27-9.7-.27-12.51,0-4.73.18-8.99.54-12.78Z"/>
      <path class="cls-1" d="M114.44,156.18c.54.09,1.03.13,1.47.13l2.34-.07c.71,0,1.34.07,1.87.2-.22,3.08-.46,5.46-.7,7.16-.25,1.7-.64,2.81-1.17,3.35-.85,1.2-2.02,2.03-3.51,2.48-1.5.45-3.27.67-5.32.67-.8,0-2.01-.04-3.61-.13l-3.08-.07c-2.63-.45-4.59-1.44-5.89-2.98-1.29-1.54-2.13-3.36-2.51-5.45-.38-2.1-.64-4.86-.77-8.3,0-2.5-.02-4.33-.07-5.49,0-2.63.49-5.55,1.47-8.77.58-1.29,1.82-2.26,3.71-2.91,1.9-.65,4-.97,6.32-.97.36.04.87.07,1.54.07.4,0,.9-.01,1.51-.03.6-.02,1.33-.01,2.17.03,3.34.31,5.82,1.25,7.43,2.81,1.03.71,1.68,1.85,1.97,3.41.29,1.56.48,3.9.57,7.03l.07,1.61c-.67.13-1.34.2-2.01.2-1.16,0-2.34-.11-3.55-.33-.04-3.17-.61-5.33-1.71-6.49-1.09-1.16-2.82-1.74-5.19-1.74-.49,0-1.36.04-2.61.13-1.16.04-2.06.16-2.71.33-.65.18-1.22.6-1.71,1.27-.49.67-.85,1.7-1.07,3.08-.13.94-.2,2.61-.2,5.02v5.35c-.09,1.47.27,3,1.07,4.58.8,1.58,2.41,2.49,4.82,2.71.45.04,1.05.07,1.81.07,2.1,0,3.66-.4,4.68-1.2,1.03-.8,1.68-1.73,1.97-2.78.29-1.05.48-2.38.57-3.98Z"/>
      <path class="cls-1" d="M123.14,147.55c0-1.65.08-3.08.23-4.28s.55-2.7,1.17-4.48c.58-1.29,1.82-2.26,3.71-2.91,1.9-.65,4-.97,6.32-.97.31.04.76.07,1.34.07l2.68-.07c3.75,0,6.62.98,8.63,2.94.8.54,1.42,1.54,1.84,3.01.42,1.47.68,3.45.77,5.92.09,2.48.13,3.91.13,4.32-.18,4.46-.39,8.01-.64,10.64-.25,2.63-.75,4.33-1.51,5.08-.85,1.2-2.02,2.03-3.51,2.48-1.5.45-3.27.67-5.32.67-.8,0-2.01-.04-3.61-.13l-3.08-.07c-2.63-.45-4.61-1.41-5.92-2.88-1.32-1.47-2.16-3.19-2.54-5.15-.38-1.96-.57-4.33-.57-7.09v-3.48c0-1.65-.04-2.85-.13-3.61ZM136.78,141.2c-3.03,0-5.22.78-6.56,2.34-.58.71-.95,1.62-1.1,2.71-.16,1.09-.21,2.51-.17,4.25-.04.67-.03,1.56.03,2.68.07,1.12.1,1.99.1,2.61l.13,2.81c.13,1.78.64,3.04,1.51,3.78.87.74,1.97,1.24,3.31,1.51.89.13,1.81.2,2.74.2,1.74,0,3.26-.31,4.55-.94,1.29-.62,2.12-1.65,2.48-3.08.18-1.16.27-2.07.27-2.74.22-3.12.33-5.24.33-6.36,0-2.94-.54-5.31-1.61-7.09-1.07-1.78-3.08-2.68-6.02-2.68Z"/>
      <path class="cls-1" d="M160,136.11c.09.49.13,1.12.13,1.87v1.67c1.65-1.65,3.61-2.65,5.89-3.01,1.56-.31,2.88-.47,3.95-.47,1.92,0,3.5.38,4.75,1.14.98.45,1.63,1.07,1.94,1.87.31-.18.77-.5,1.37-.97.6-.47,1.43-.91,2.48-1.34,1.05-.42,2.51-.66,4.38-.7,2.23-.09,3.98.01,5.25.3,1.27.29,2.42.88,3.45,1.77.58.49.98,1.65,1.2,3.48.22,1.83.33,4.24.33,7.23,0,1.7-.04,4.37-.13,8.03-.09,3.57-.13,6.11-.13,7.63,0,1.25.04,2.77.13,4.55-1.61.27-3.5.36-5.69.27-.09-1.2-.13-3.41-.13-6.62.09-3.48.13-6.16.13-8.03v-2.81c-.04-.36-.09-1-.13-1.94-.04-.94-.13-1.96-.27-3.08-.13-1.11-.4-1.96-.8-2.54-.27-.89-1.14-1.41-2.61-1.54-.45-.09-1.09-.13-1.94-.13-1.29,0-2.41.21-3.35.64-.94.42-1.61,1.08-2.01,1.97-.09.98-.13,1.76-.13,2.34l.07,1.87v2.48c0,1.52-.04,3.84-.13,6.96l-.07,6.69c0,1.65.02,2.83.07,3.55-.94.13-2.21.2-3.81.2h-2.07c-.09-.89-.13-2.48-.13-4.75v-3.55l.07-4.95c0-3.08-.09-5.8-.27-8.16,0-1.87-.31-3.16-.94-3.85-.62-.69-1.79-1.04-3.48-1.04-4.73,0-7.27,2.65-7.63,7.96-.04.67-.07,1.65-.07,2.94,0,1.43.04,3.44.13,6.02l.07,3.28c0,1.83-.07,3.73-.2,5.69v.27c-.67.13-1.29.2-1.87.2l-2.21-.07c-.67,0-1.2.02-1.61.07l-.07-11.51c-.09-5.26-.13-9.21-.13-11.84,0-2.14.04-5.53.13-10.17,1.16.09,1.85.13,2.07.13l1.47-.07c.22,0,.51-.02.87-.07.36-.04.71-.07,1.07-.07.4,0,.6.07.6.2Z"/>
      <path class="cls-1" d="M204.63,152.37v1.2l-.07,1.94c0,5.53,2.72,8.3,8.16,8.3,2.18,0,3.8-.5,4.85-1.51,1.05-1,1.57-2.38,1.57-4.11,0-.27-.04-.76-.13-1.47.94-.13,1.81-.2,2.61-.2.71,0,1.25.02,1.61.07.27,0,.59.01.97.03.38.02.81.01,1.3-.03.04,2.54-.04,4.57-.27,6.09-.22,1.52-.76,2.97-1.61,4.35-.8,1.2-2.2,2.06-4.18,2.58-1.99.51-4.16.77-6.52.77-1.07,0-2.06-.04-2.98-.13-.92-.09-1.48-.18-1.71-.27-3.48-.58-6-2.78-7.56-6.59-1.56-3.81-2.23-8.17-2.01-13.08.04-.36.11-1.1.2-2.24.09-1.14.21-2.31.37-3.51s.46-2.39.9-3.55c.85-1.96,2.39-3.48,4.62-4.55,2.23-1.07,4.71-1.61,7.43-1.61,1.43,0,2.92.18,4.48.54,6.07,1.03,9.1,5.6,9.1,13.72,0,.67-.04,1.63-.13,2.88-.85.27-3.34.49-7.49.67-.49.04-1.56.07-3.21.07-3.52,0-6.13-.04-7.83-.13-1.12,0-1.94-.07-2.48-.2ZM220.89,147.35c-.04-1.38-.39-2.74-1.04-4.08-.65-1.34-1.57-2.39-2.78-3.14-.67-.31-1.25-.51-1.74-.6-.49-.09-1.12-.13-1.87-.13-2.9,0-4.96.6-6.19,1.81-1.23,1.2-2,2.92-2.31,5.15-.09.54-.13.89-.13,1.07,0,.54.26.89.77,1.07.51.18,1.62.27,3.31.27s3.05-.02,4.21-.07c4.28,0,6.69-.02,7.23-.07.22-.04.37-.1.43-.17.07-.07.1-.19.1-.37v-.74Z"/>
      <path class="cls-1" d="M253.27,123.47v10.24l.07,3.75c2.9-.09,6.49-.24,10.77-.47.27.36.4,1.03.4,2.01l-.07,1.54c-.09.98-.11,1.7-.07,2.14-4.86,0-8.5-.02-10.91-.07v12.51c0,2.01.04,3.44.13,4.28.09.85.27,1.58.54,2.21.71.89,2.15,1.45,4.32,1.67,2.16.22,4.14.29,5.92.2.22,1.78.33,2.92.33,3.41,0,.8-.11,1.61-.33,2.41-.94.04-2.41.07-4.42.07-3.48,0-6.2-.42-8.16-1.27-1.96-.85-3.21-2.54-3.75-5.09-.49-4.33-.74-9.97-.74-16.93v-3.21c-.27.05-.94.07-2.01.07l-5.08-.07.2-5.49c.98.09,3.32.13,7.03.13l-.07-7.03v-3.14c0-1.87.04-3.19.13-3.95.62-.04,1.58-.02,2.88.07l1.81.07c.49,0,.85-.02,1.07-.07Z"/>
      <path class="cls-1" d="M266.92,147.55c0-1.65.08-3.08.23-4.28s.55-2.7,1.17-4.48c.58-1.29,1.82-2.26,3.71-2.91,1.9-.65,4-.97,6.32-.97.31.04.76.07,1.34.07l2.68-.07c3.75,0,6.62.98,8.63,2.94.8.54,1.42,1.54,1.84,3.01.42,1.47.68,3.45.77,5.92.09,2.48.13,3.91.13,4.32-.18,4.46-.39,8.01-.64,10.64-.25,2.63-.75,4.33-1.51,5.08-.85,1.2-2.02,2.03-3.51,2.48-1.5.45-3.27.67-5.32.67-.8,0-2.01-.04-3.61-.13l-3.08-.07c-2.63-.45-4.61-1.41-5.92-2.88-1.32-1.47-2.16-3.19-2.54-5.15-.38-1.96-.57-4.33-.57-7.09v-3.48c0-1.65-.04-2.85-.13-3.61ZM280.57,141.2c-3.03,0-5.22.78-6.56,2.34-.58.71-.95,1.62-1.1,2.71-.16,1.09-.21,2.51-.17,4.25-.04.67-.03,1.56.03,2.68.07,1.12.1,1.99.1,2.61l.13,2.81c.13,1.78.64,3.04,1.51,3.78.87.74,1.97,1.24,3.31,1.51.89.13,1.81.2,2.74.2,1.74,0,3.26-.31,4.55-.94,1.29-.62,2.12-1.65,2.48-3.08.18-1.16.27-2.07.27-2.74.22-3.12.33-5.24.33-6.36,0-2.94-.54-5.31-1.61-7.09-1.07-1.78-3.08-2.68-6.02-2.68Z"/>
      <path class="cls-1" d="M307.67,135.84c.76.04,1.92.07,3.48.07s2.59.04,3.21.13l2.41,9.17c1.65,6.29,2.92,11.03,3.81,14.22.89,3.19,1.63,5.32,2.21,6.39.67-.8,1.45-2.99,2.34-6.56.89-3.57,1.96-8.3,3.21-14.18.13-.54.46-2.03.97-4.48.51-2.45.88-3.97,1.1-4.55l2.61-.07c1.61-.09,2.92-.11,3.95-.07-.45,1.61-1.25,4.86-2.41,9.77l-1.2,5.02c-.18.58-.58,2.43-1.2,5.55-1.16,5.4-2.38,9.74-3.65,13.01-1.27,3.28-3.42,6.09-6.46,8.43s-7.27,3.51-12.71,3.51c-.98,0-1.74-.02-2.27-.07-.36-.94-.54-2.1-.54-3.48,0-1.03.09-1.87.27-2.54,1.43.09,2.45.13,3.08.13,5.08,0,7.63-1.32,7.63-3.95,0-.22-.04-.56-.13-1l-4.75-16.79c-1.56-5.35-3.21-11.24-4.95-17.66Z"/>
      <path class="cls-1" d="M338.31,147.55c0-1.65.08-3.08.23-4.28s.55-2.7,1.17-4.48c.58-1.29,1.82-2.26,3.71-2.91,1.9-.65,4-.97,6.32-.97.31.04.76.07,1.34.07l2.68-.07c3.75,0,6.62.98,8.63,2.94.8.54,1.42,1.54,1.84,3.01.42,1.47.68,3.45.77,5.92.09,2.48.13,3.91.13,4.32-.18,4.46-.39,8.01-.64,10.64-.25,2.63-.75,4.33-1.51,5.08-.85,1.2-2.02,2.03-3.51,2.48-1.5.45-3.27.67-5.32.67-.8,0-2.01-.04-3.61-.13l-3.08-.07c-2.63-.45-4.61-1.41-5.92-2.88-1.32-1.47-2.16-3.19-2.54-5.15-.38-1.96-.57-4.33-.57-7.09v-3.48c0-1.65-.04-2.85-.13-3.61ZM351.96,141.2c-3.03,0-5.22.78-6.56,2.34-.58.71-.95,1.62-1.1,2.71-.16,1.09-.21,2.51-.17,4.25-.04.67-.03,1.56.03,2.68.07,1.12.1,1.99.1,2.61l.13,2.81c.13,1.78.64,3.04,1.51,3.78.87.74,1.97,1.24,3.31,1.51.89.13,1.81.2,2.74.2,1.74,0,3.26-.31,4.55-.94,1.29-.62,2.12-1.65,2.48-3.08.18-1.16.27-2.07.27-2.74.22-3.12.33-5.24.33-6.36,0-2.94-.54-5.31-1.61-7.09-1.07-1.78-3.08-2.68-6.02-2.68Z"/>
      <path class="cls-1" d="M388.49,169.3c-.04-.85-.07-1.55-.07-2.11s-.02-1.04-.07-1.44c-.09.04-.45.29-1.07.74-.63.45-1.63.83-3.01,1.14-2.59.94-5.11,1.41-7.56,1.41-2.77,0-4.84-.67-6.22-2.01-.76-.67-1.23-1.79-1.4-3.38-.18-1.58-.29-4.11-.33-7.59v-2.07c0-1.38.04-3.41.13-6.09.13-2.68.2-5.22.2-7.63,0-1.16-.05-2.59-.13-4.28.8-.09,1.89-.13,3.28-.13h2.21c.13,1.34.2,2.92.2,4.75l-.07,5.42c0,1.78.02,3.08.07,3.88l.07,1.87c0,1.61.07,3.48.2,5.62.09,1.47.39,2.59.9,3.35.51.76,1.28,1.27,2.31,1.54.89.13,1.72.2,2.48.2,2.63,0,4.65-.71,6.06-2.14,1.4-1.43,2.13-3.37,2.17-5.82.04-1.61-.02-4.53-.2-8.77-.09-2.14-.13-3.55-.13-4.22,0-1.2.04-2.92.13-5.15v-.27c.71-.18,1.39-.29,2.04-.33.65-.04,1.04-.07,1.17-.07.94,0,1.74-.02,2.41-.07l.07,11.51c.09,5.26.13,9.21.13,11.84,0,2.14-.04,5.53-.13,10.17-.98,0-2.07.07-3.28.2-.22,0-.5.02-.84.07-.33.04-.68.07-1.04.07-.45,0-.67-.07-.67-.2Z"/>
      <path class="cls-1" d="M405.29,136.04c0,.54.01.95.03,1.24.02.29.03.64.03,1.04.31-.18.75-.38,1.3-.6.56-.22,1.17-.45,1.84-.67,1.03-.36,2.26-.61,3.71-.77,1.45-.16,2.75-.23,3.91-.23,1.07,0,1.61.05,1.61.13l-.07,5.55c0,.89.02,1.56.07,2.01-.67-.27-1.43-.51-2.27-.74-.98-.22-2.05-.33-3.21-.33s-2.57.18-4.08.54c-1.25.31-2.1.78-2.54,1.41-.45.63-.65,1.81-.6,3.55.18,6.11.27,13.05.27,20.81v.27c-.76.18-1.54.27-2.34.27-.31,0-.81-.01-1.5-.03-.69-.02-1.39-.01-2.11.03l-.07-11.51c-.09-5.26-.13-9.21-.13-11.84,0-2.14.04-5.53.13-10.17.45.04.92.06,1.44.03.51-.02.97-.03,1.37-.03.54-.04,1.25-.07,2.14-.07.71,0,1.07.04,1.07.13Z"/>
      <path class="cls-1" d="M440.75,136.04c.09.49.13,1.12.13,1.87v1.67c1.52-.89,3.3-1.68,5.35-2.38,2.05-.69,4.1-1.04,6.16-1.04,2.45.09,4.46.78,6.02,2.07,1.07.94,1.61,4.75,1.61,11.44,0,1.7-.04,4.33-.13,7.9-.09,3.39-.13,5.84-.13,7.36,0,1.96.02,3.37.07,4.22-.85.13-2.07.2-3.68.2h-2.21c-.09-.71-.13-1.96-.13-3.75v-2.88l.07-4.28c.09-2.9.11-4.97.07-6.22,0-.27-.06-1.18-.17-2.74-.11-1.56-.37-2.94-.77-4.15-.13-1.56-1.23-2.27-3.28-2.14-3.08.04-5.34.47-6.79,1.27-1.45.8-2.26,2.25-2.44,4.35-.04.58-.07,1.67-.07,3.28,0,2.5.04,5.18.13,8.03.09,1.7.13,2.94.13,3.75,0,1.65-.07,3.35-.2,5.09v.27c-.85.18-1.68.26-2.51.23-.83-.02-1.42-.03-1.77-.03-.71,0-1.27.02-1.67.07l-.07-11.51c-.09-5.26-.13-9.21-.13-11.84,0-2.14.04-5.53.13-10.17.54.04,1.16.07,1.87.07s1.29-.02,1.74-.07c.27,0,.58-.02.94-.07.36-.04.71-.07,1.07-.07.45,0,.67.07.67.2Z"/>
      <path class="cls-1" d="M469.45,152.37v1.2l-.07,1.94c0,5.53,2.72,8.3,8.16,8.3,2.18,0,3.8-.5,4.85-1.51,1.05-1,1.57-2.38,1.57-4.11,0-.27-.04-.76-.13-1.47.94-.13,1.81-.2,2.61-.2.71,0,1.25.02,1.61.07.27,0,.59.01.97.03.38.02.81.01,1.3-.03.04,2.54-.04,4.57-.27,6.09-.22,1.52-.76,2.97-1.61,4.35-.8,1.2-2.2,2.06-4.18,2.58-1.99.51-4.16.77-6.52.77-1.07,0-2.06-.04-2.98-.13-.92-.09-1.48-.18-1.71-.27-3.48-.58-6-2.78-7.56-6.59-1.56-3.81-2.23-8.17-2.01-13.08.04-.36.11-1.1.2-2.24.09-1.14.21-2.31.37-3.51s.46-2.39.9-3.55c.85-1.96,2.39-3.48,4.62-4.55,2.23-1.07,4.71-1.61,7.43-1.61,1.43,0,2.92.18,4.48.54,6.07,1.03,9.1,5.6,9.1,13.72,0,.67-.04,1.63-.13,2.88-.85.27-3.34.49-7.49.67-.49.04-1.56.07-3.21.07-3.52,0-6.13-.04-7.83-.13-1.12,0-1.94-.07-2.48-.2ZM485.71,147.35c-.04-1.38-.39-2.74-1.04-4.08-.65-1.34-1.57-2.39-2.78-3.14-.67-.31-1.25-.51-1.74-.6-.49-.09-1.12-.13-1.87-.13-2.9,0-4.96.6-6.19,1.81-1.23,1.2-2,2.92-2.31,5.15-.09.54-.13.89-.13,1.07,0,.54.26.89.77,1.07.51.18,1.62.27,3.31.27s3.05-.02,4.21-.07c4.28,0,6.69-.02,7.23-.07.22-.04.37-.1.43-.17.07-.07.1-.19.1-.37v-.74Z"/>
      <path class="cls-1" d="M491.67,135.84c.76.04,1.9.07,3.41.07s2.56.04,3.28.13l1,6.16c1.16,7.67,2.43,14.5,3.81,20.47,2.19-6.2,3.87-11.31,5.05-15.32,1.18-4.01,2.15-7.85,2.91-11.51.4.04,1.45.02,3.15-.07,1.56-.09,2.74-.04,3.55.13l.4,2.21c.76,3.84,1.55,7.46,2.38,10.87s2.11,7.82,3.85,13.21c1.07-4.1,2.18-9.19,3.35-15.26.18-.76.54-2.42,1.07-4.98.54-2.56,1-4.56,1.41-5.99,1.61-.09,2.92-.13,3.95-.13s1.76.02,2.34.07c-1.07,3.66-1.97,6.97-2.71,9.94-.74,2.97-1.39,5.74-1.97,8.33-.18.71-.59,2.51-1.24,5.39-.65,2.88-1.46,6.15-2.44,9.8-1.03.22-1.96.29-2.81.2l-4.75-.07c-2.01-7.9-4.19-15.66-6.56-23.28-1.74,5.62-2.79,9.06-3.14,10.3-1.56,5.49-2.88,9.79-3.95,12.91-.63.09-1.72.13-3.28.13l-5.08-.07c-2.05-11.55-4.37-22.77-6.96-33.66Z"/>
      <path class="cls-1" d="M560.92,144.34v24.76c-.67-.04-1.45-.02-2.34.07l-1.61.07c-.71,0-1.29-.04-1.74-.13-.18-1.07-.27-4.95-.27-11.64l.07-8.1c.04-1.34.07-3.01.07-5.02-.49.04-1.47.07-2.94.07-.4-.04-.98-.07-1.74-.07-.67,0-1.16.02-1.47.07l-.2-5.75c3.3,0,5.37.02,6.22.07l-.07-2.68c0-3.35.52-6.16,1.57-8.43,1.05-2.27,3.07-3.61,6.06-4.01,2.45-.22,5.08-.33,7.89-.33h2.61c.27.85.4,1.74.4,2.68,0,.49-.11,1.63-.33,3.41-.76-.04-3.26.02-7.49.2-1.43.09-2.41.21-2.94.37-.54.16-.94.57-1.21,1.24-.27.67-.4,1.85-.4,3.55,0,.58.04,1.99.13,4.22,2.63-.04,6.56-.07,11.78-.07-.04.18-.11.91-.2,2.21,0,1.34-.04,2.52-.13,3.55l-7.69-.2-4.01-.07Z"/>
      <path class="cls-1" d="M596.78,135.71c1.03-.04,2.34,0,3.95.13l1.74.13c.09.71.13,1.25.13,1.61v.67c-.04,1.03-.07,2.57-.07,4.62,0,1.7.04,4.19.13,7.49l.07,7.49c0,3.21-.09,6.13-.27,8.77v.87c0,.45-.04.85-.13,1.2-.09.36-.33.58-.74.67h-1.14l-2.14-.07c-.36,0-.67.02-.94.07-.27.04-.51.07-.74.07-.45-.13-.67-.62-.67-1.47-.04-.36-.03-.76.03-1.2.07-.45.1-.82.1-1.14-1.07,1.47-2.77,2.48-5.08,3.01-2.32.54-4.59.8-6.83.8s-3.96-.95-5.45-2.84c-1.49-1.9-2.6-4.23-3.31-6.99-.71-2.77-1.07-5.46-1.07-8.1,0-2.9.49-5.51,1.47-7.83.98-2.32,2.33-4.16,4.05-5.52,1.72-1.36,3.62-2.06,5.72-2.11l2.14-.07c2.01,0,3.67.23,4.98.7,1.32.47,2.29,1.33,2.91,2.58,0-.4.04-.91.13-1.54.09-.89.13-1.52.13-1.87,0-.09.29-.13.87-.13ZM589.29,141.73c-2.32-.04-4.27.55-5.85,1.77-1.58,1.23-2.55,2.69-2.91,4.38-.36,1.29-.54,3.03-.54,5.22.22,7.18,3.12,10.62,8.7,10.3,2.27,0,3.92-.4,4.95-1.2,1.03-.8,1.66-1.94,1.91-3.41.24-1.47.37-3.68.37-6.62,0-3.21-.13-5.48-.4-6.79-.27-1.32-.84-2.22-1.71-2.71-.87-.49-2.38-.8-4.52-.94Z"/>
      <path class="cls-1" d="M605.68,135.84c.67.09,1.61.13,2.81.13.4,0,.88-.01,1.44-.03.56-.02,1.17-.01,1.84.03.71,2.5,2.03,7.25,3.95,14.25.94,3.52,1.63,6.07,2.07,7.63.45,1.56.98,3.08,1.61,4.55.4-.98.89-2.48,1.47-4.48.58-2.01.96-3.32,1.14-3.95,2.19-7.45,4.06-13.4,5.62-17.86.4,0,1.05-.04,1.94-.13,1.61-.09,2.94-.11,4.01-.07-.89,2.36-1.72,4.81-2.48,7.33-.76,2.52-1.47,5.01-2.14,7.46-2.14,7.4-4.06,13.58-5.75,18.53-.71.13-1.85.2-3.41.2l-4.82-.07c-1.96-6.24-3.4-10.98-4.32-14.22-.92-3.23-1.84-6.79-2.78-10.67l-2.21-8.63Z"/>
      <path class="cls-1" d="M634.52,147.55c0-1.65.08-3.08.23-4.28s.55-2.7,1.17-4.48c.58-1.29,1.82-2.26,3.71-2.91,1.9-.65,4-.97,6.32-.97.31.04.76.07,1.34.07l2.68-.07c3.75,0,6.62.98,8.63,2.94.8.54,1.42,1.54,1.84,3.01.42,1.47.68,3.45.77,5.92.09,2.48.13,3.91.13,4.32-.18,4.46-.39,8.01-.64,10.64-.25,2.63-.75,4.33-1.51,5.08-.85,1.2-2.02,2.03-3.51,2.48-1.5.45-3.27.67-5.32.67-.8,0-2.01-.04-3.61-.13l-3.08-.07c-2.63-.45-4.61-1.41-5.92-2.88-1.32-1.47-2.16-3.19-2.54-5.15-.38-1.96-.57-4.33-.57-7.09v-3.48c0-1.65-.04-2.85-.13-3.61ZM648.17,141.2c-3.03,0-5.22.78-6.56,2.34-.58.71-.95,1.62-1.1,2.71-.16,1.09-.21,2.51-.17,4.25-.04.67-.03,1.56.03,2.68.07,1.12.1,1.99.1,2.61l.13,2.81c.13,1.78.64,3.04,1.51,3.78.87.74,1.97,1.24,3.31,1.51.89.13,1.81.2,2.74.2,1.74,0,3.26-.31,4.55-.94,1.29-.62,2.12-1.65,2.48-3.08.18-1.16.27-2.07.27-2.74.22-3.12.33-5.24.33-6.36,0-2.94-.54-5.31-1.61-7.09-1.07-1.78-3.08-2.68-6.02-2.68Z"/>
      <path class="cls-1" d="M684.7,169.3c-.04-.85-.07-1.55-.07-2.11s-.02-1.04-.07-1.44c-.09.04-.45.29-1.07.74-.63.45-1.63.83-3.01,1.14-2.59.94-5.11,1.41-7.56,1.41-2.77,0-4.84-.67-6.22-2.01-.76-.67-1.23-1.79-1.4-3.38-.18-1.58-.29-4.11-.33-7.59v-2.07c0-1.38.04-3.41.13-6.09.13-2.68.2-5.22.2-7.63,0-1.16-.05-2.59-.13-4.28.8-.09,1.89-.13,3.28-.13h2.21c.13,1.34.2,2.92.2,4.75l-.07,5.42c0,1.78.02,3.08.07,3.88l.07,1.87c0,1.61.07,3.48.2,5.62.09,1.47.39,2.59.9,3.35.51.76,1.28,1.27,2.31,1.54.89.13,1.72.2,2.48.2,2.63,0,4.65-.71,6.06-2.14,1.4-1.43,2.13-3.37,2.17-5.82.04-1.61-.02-4.53-.2-8.77-.09-2.14-.13-3.55-.13-4.22,0-1.2.04-2.92.13-5.15v-.27c.71-.18,1.39-.29,2.04-.33.65-.04,1.04-.07,1.17-.07.94,0,1.74-.02,2.41-.07l.07,11.51c.09,5.26.13,9.21.13,11.84,0,2.14-.04,5.53-.13,10.17-.98,0-2.07.07-3.28.2-.22,0-.5.02-.84.07-.33.04-.68.07-1.04.07-.45,0-.67-.07-.67-.2Z"/>
      <path class="cls-1" d="M701.49,136.04c0,.54.01.95.03,1.24.02.29.03.64.03,1.04.31-.18.75-.38,1.3-.6.56-.22,1.17-.45,1.84-.67,1.03-.36,2.26-.61,3.71-.77,1.45-.16,2.75-.23,3.91-.23,1.07,0,1.61.05,1.61.13l-.07,5.55c0,.89.02,1.56.07,2.01-.67-.27-1.43-.51-2.27-.74-.98-.22-2.05-.33-3.21-.33s-2.57.18-4.08.54c-1.25.31-2.1.78-2.54,1.41-.45.63-.65,1.81-.6,3.55.18,6.11.27,13.05.27,20.81v.27c-.76.18-1.54.27-2.34.27-.31,0-.81-.01-1.5-.03-.69-.02-1.39-.01-2.11.03l-.07-11.51c-.09-5.26-.13-9.21-.13-11.84,0-2.14.04-5.53.13-10.17.45.04.92.06,1.44.03.51-.02.97-.03,1.37-.03.54-.04,1.25-.07,2.14-.07.71,0,1.07.04,1.07.13Z"/>
      <path class="cls-1" d="M719.89,135.51c.31-.04.94-.04,1.87,0,1.34.09,2.81.13,4.42.13v.2c0,2.01-.04,5.11-.13,9.3-.13,4.28-.2,8.61-.2,12.98,0,4.1.09,7.76.27,10.97-.62.13-1.56.2-2.81.2h-2.28c-.8,0-1.29.02-1.47.07.04-1.29.07-3.26.07-5.89v-11.64c-.09-3.12-.13-5.53-.13-7.23,0-3.08.13-6.09.4-9.03v-.07ZM719.63,121.12c2.77.09,4.86.13,6.29.13l.2,8.83c-.45.22-1.25.33-2.41.33-.71,0-1.25-.02-1.61-.07-.27,0-.58-.01-.94-.03-.36-.02-.78-.01-1.27.03,0-.67-.04-1.76-.13-3.28-.13-2.94-.18-4.93-.13-5.95Z"/>
      <path class="cls-1" d="M743.38,123.47v10.24l.07,3.75c2.9-.09,6.49-.24,10.77-.47.27.36.4,1.03.4,2.01l-.07,1.54c-.09.98-.11,1.7-.07,2.14-4.86,0-8.5-.02-10.91-.07v12.51c0,2.01.04,3.44.13,4.28.09.85.27,1.58.54,2.21.71.89,2.15,1.45,4.32,1.67,2.16.22,4.14.29,5.92.2.22,1.78.33,2.92.33,3.41,0,.8-.11,1.61-.33,2.41-.94.04-2.41.07-4.42.07-3.48,0-6.2-.42-8.16-1.27-1.96-.85-3.21-2.54-3.75-5.09-.49-4.33-.74-9.97-.74-16.93v-3.21c-.27.05-.94.07-2.01.07l-5.08-.07.2-5.49c.98.09,3.32.13,7.03.13l-.07-7.03v-3.14c0-1.87.04-3.19.13-3.95.62-.04,1.58-.02,2.88.07l1.81.07c.49,0,.85-.02,1.07-.07Z"/>
      <path class="cls-1" d="M762.78,152.37v1.2l-.07,1.94c0,5.53,2.72,8.3,8.16,8.3,2.18,0,3.8-.5,4.85-1.51,1.05-1,1.57-2.38,1.57-4.11,0-.27-.04-.76-.13-1.47.94-.13,1.81-.2,2.61-.2.71,0,1.25.02,1.61.07.27,0,.59.01.97.03.38.02.81.01,1.3-.03.04,2.54-.04,4.57-.27,6.09-.22,1.52-.76,2.97-1.61,4.35-.8,1.2-2.2,2.06-4.18,2.58-1.99.51-4.16.77-6.52.77-1.07,0-2.06-.04-2.98-.13-.92-.09-1.48-.18-1.71-.27-3.48-.58-6-2.78-7.56-6.59-1.56-3.81-2.23-8.17-2.01-13.08.04-.36.11-1.1.2-2.24.09-1.14.21-2.31.37-3.51s.46-2.39.9-3.55c.85-1.96,2.39-3.48,4.62-4.55,2.23-1.07,4.71-1.61,7.43-1.61,1.43,0,2.92.18,4.48.54,6.07,1.03,9.1,5.6,9.1,13.72,0,.67-.04,1.63-.13,2.88-.85.27-3.34.49-7.49.67-.49.04-1.56.07-3.21.07-3.52,0-6.13-.04-7.83-.13-1.12,0-1.94-.07-2.48-.2ZM779.04,147.35c-.04-1.38-.39-2.74-1.04-4.08-.65-1.34-1.57-2.39-2.78-3.14-.67-.31-1.25-.51-1.74-.6-.49-.09-1.12-.13-1.87-.13-2.9,0-4.96.6-6.19,1.81-1.23,1.2-2,2.92-2.31,5.15-.09.54-.13.89-.13,1.07,0,.54.26.89.77,1.07.51.18,1.62.27,3.31.27s3.05-.02,4.21-.07c4.28,0,6.69-.02,7.23-.07.22-.04.37-.1.43-.17.07-.07.1-.19.1-.37v-.74Z"/>
      <path class="cls-1" d="M807.21,122.8c0,.4.01.73.03.97.02.25.03.43.03.57.04.31.07.91.07,1.81l.13,3.41-.07,9.64c.04-.31.35-.75.9-1.3.56-.56,1.3-1.05,2.24-1.47.94-.42,1.98-.66,3.14-.7,3.92-.13,6.94.18,9.03.94,1.87.67,3.25,2.25,4.12,4.75.87,2.5,1.3,5.44,1.3,8.83-.13,3.88-.45,7.06-.94,9.53-.49,2.48-1.54,4.59-3.14,6.36-1.61,1.76-3.99,2.75-7.16,2.98-.71.09-1.29.13-1.74.13-1.03,0-1.99-.16-2.88-.47-.71-.22-1.43-.67-2.14-1.34-1.43-.8-2.41-1.83-2.94-3.08.09.62.13,1.41.13,2.34l-.07,2.14c0,.27-.02.42-.07.47-.27.04-.74.07-1.41.07-.98,0-1.74-.02-2.27-.07l-2.68-.07c-.04-1.61-.07-4.06-.07-7.36,0-3.57.02-6.77.07-9.6.04-2.83.09-5.23.13-7.19.18-8.12.27-14.27.27-18.47v-4.42c.76-.13,1.63-.2,2.61-.2.8,0,1.52.03,2.14.1.62.07,1.03.12,1.2.17v.54ZM822.73,152.97c0-1.47-.09-2.59-.27-3.35-.18-1.83-.45-3.29-.8-4.38-.36-1.09-1.16-2.03-2.41-2.81-1.25-.78-3.15-1.17-5.69-1.17s-4.18.88-5.05,2.64c-.87,1.76-1.3,4.52-1.3,8.26,0,3.17.57,5.88,1.71,8.13,1.14,2.25,2.95,3.38,5.45,3.38,2.77,0,4.85-.9,6.26-2.71,1.41-1.81,2.11-4.47,2.11-8Z"/>
      <path class="cls-1" d="M853.24,135.71c1.03-.04,2.34,0,3.95.13l1.74.13c.09.71.13,1.25.13,1.61v.67c-.04,1.03-.07,2.57-.07,4.62,0,1.7.04,4.19.13,7.49l.07,7.49c0,3.21-.09,6.13-.27,8.77v.87c0,.45-.04.85-.13,1.2-.09.36-.33.58-.74.67h-1.14l-2.14-.07c-.36,0-.67.02-.94.07-.27.04-.51.07-.74.07-.45-.13-.67-.62-.67-1.47-.04-.36-.03-.76.03-1.2.07-.45.1-.82.1-1.14-1.07,1.47-2.77,2.48-5.08,3.01-2.32.54-4.59.8-6.83.8s-3.96-.95-5.45-2.84c-1.49-1.9-2.6-4.23-3.31-6.99-.71-2.77-1.07-5.46-1.07-8.1,0-2.9.49-5.51,1.47-7.83.98-2.32,2.33-4.16,4.05-5.52,1.72-1.36,3.62-2.06,5.72-2.11l2.14-.07c2.01,0,3.67.23,4.98.7,1.32.47,2.29,1.33,2.91,2.58,0-.4.04-.91.13-1.54.09-.89.13-1.52.13-1.87,0-.09.29-.13.87-.13ZM845.75,141.73c-2.32-.04-4.27.55-5.85,1.77-1.58,1.23-2.55,2.69-2.91,4.38-.36,1.29-.54,3.03-.54,5.22.22,7.18,3.12,10.62,8.7,10.3,2.27,0,3.92-.4,4.95-1.2,1.03-.8,1.66-1.94,1.91-3.41.24-1.47.37-3.68.37-6.62,0-3.21-.13-5.48-.4-6.79-.27-1.32-.84-2.22-1.71-2.71-.87-.49-2.38-.8-4.52-.94Z"/>
      <path class="cls-1" d="M869.9,136.04c0,.54.01.95.03,1.24.02.29.03.64.03,1.04.31-.18.75-.38,1.3-.6.56-.22,1.17-.45,1.84-.67,1.03-.36,2.26-.61,3.71-.77,1.45-.16,2.75-.23,3.91-.23,1.07,0,1.61.05,1.61.13l-.07,5.55c0,.89.02,1.56.07,2.01-.67-.27-1.43-.51-2.27-.74-.98-.22-2.05-.33-3.21-.33s-2.57.18-4.08.54c-1.25.31-2.1.78-2.54,1.41-.45.63-.65,1.81-.6,3.55.18,6.11.27,13.05.27,20.81v.27c-.76.18-1.54.27-2.34.27-.31,0-.81-.01-1.5-.03-.69-.02-1.39-.01-2.11.03l-.07-11.51c-.09-5.26-.13-9.21-.13-11.84,0-2.14.04-5.53.13-10.17.45.04.92.06,1.44.03.51-.02.97-.03,1.37-.03.54-.04,1.25-.07,2.14-.07.71,0,1.07.04,1.07.13Z"/>
    </g>
  </g>
</svg>