<?xml version="1.0" encoding="UTF-8"?>
<svg id="Layer_2" data-name="Layer 2" xmlns="http://www.w3.org/2000/svg" viewBox="0 0 1529.63 542.42">
  <defs>
    <style>
      .cls-1 {
        fill-rule: evenodd;
      }

      .cls-1, .cls-2 {
        fill: #f7f0e4;
      }
    </style>
  </defs>
  <g id="Layer_1-2" data-name="Layer 1">
    <g>
      <path class="cls-2" d="M571.12,163.26l-172.3,49.44c-18.02,5.17-13.54,31.82,5.18,30.82l170.84-9.06h0s.03,0,.03,0l3.42,65.25-170.63,8.87c-18.71.97-20.38,27.92-1.93,31.19l176.24,31.23v-.09s.06.01.06.01l8.56,163.17-152.91,8c-81.95,4.29-124.37-32.76-128.55-112.26l-15.57-296.66c-4.17-79.5,34.14-120.77,116.1-125.06L562.56.1l8.56,163.16Z"/>
      <path class="cls-2" d="M1529.63,422.78c0,79.61-40.43,118.83-122.5,118.83h-30.62c-82.07,0-122.49-39.22-122.49-118.83V6.89h120.11l4.35,248.05c.35,19.52,28.93,21.06,31.37,1.69l31.46-249.74h88.31v415.89Z"/>
      <path class="cls-2" d="M820.02,8.99v.04h-.05l-14.97,168.15c-2.6,29.11,39.67,36.02,46.5,7.6l41.31-171.98,30.59,1.6-21.8,415.32c-4.17,79.5-46.59,116.55-128.55,112.26l-152.91-8,8.44-160.79h.13v.07l171.34,13c18.74,1.42,23.77-25.23,5.8-30.72l-159.48-48.72v-.19l-10.96-3.15-3.09-.94v.05s-.03,0-.03,0L648.15,0l171.87,8.99Z"/>
      <path class="cls-2" d="M108.87,166.85c3.7,29.06,46.6,26.69,47.06-2.6l2.45-155.47h.04v-1.89h88.63l28.06,534.72h-116.63l-3.93-158.09c-.73-29.29-43.66-31.26-47.08-2.17l-18.85,160.26H0V6.89h88.55l20.33,159.97Z"/>
      <path class="cls-1" d="M1097.74,6.89c77.01,0,114.94,39.22,114.94,118.83v297.06c0,74.34-28.13,118.83-114.94,118.83h-28.73c-84.67,0-131.65-42.68-130.17-113.62l12.57-239.49c1.33-24.1,2.55-45.83,3.53-63.07,4.16-72.51,37.07-118.54,114.07-118.54h28.73ZM1086.05,219.2c-30.44,0-55.12,24.65-55.12,55.05s24.67,55.04,55.12,55.04c30.44,0,55.12-24.64,55.12-55.04s-24.68-55.05-55.12-55.05Z"/>
    </g>
  </g>
</svg>